<svg width="19" height="19" viewBox="0 0 19 19" fill="none" xmlns="http://www.w3.org/2000/svg">
<g clip-path="url(#clip0_301_4204)">
<path d="M7.91634 17.4166C4.93097 17.4166 3.43788 17.4166 2.51084 16.4888C1.5838 15.561 1.58301 14.8604 1.58301 11.875M17.4163 11.875C17.4163 14.8604 17.4163 15.5618 16.4885 16.4888C15.5607 17.4159 14.0684 17.4166 11.083 17.4166M11.083 1.58331C14.0684 1.58331 15.5615 1.58331 16.4885 2.51115C17.4156 3.43898 17.4163 4.1396 17.4163 7.12498M7.91634 1.58331C4.93097 1.58331 3.43788 1.58331 2.51084 2.51115C1.5838 3.43898 1.58301 4.1396 1.58301 7.12498M1.58301 9.49998H17.4163" stroke="#888D96" stroke-width="1.3" stroke-linecap="round"/>
</g>
<defs>
<clipPath id="clip0_301_4204">
<rect width="19" height="19" fill="white"/>
</clipPath>
</defs>
</svg>
