<svg width="19" height="19" viewBox="0 0 19 19" fill="none" xmlns="http://www.w3.org/2000/svg">
<path d="M6.30986 7.8264H12.6907M6.30986 11.1736H10.8604M9.50028 16.8229C11.091 16.8226 12.6384 16.3042 13.9084 15.3463C15.1784 14.3884 16.102 13.0429 16.5394 11.5135C16.9768 9.98404 16.9042 8.35376 16.3327 6.8692C15.7613 5.38463 14.7219 4.12653 13.3718 3.28517C12.0218 2.44381 10.4345 2.06494 8.84997 2.20586C7.26546 2.34679 5.76993 2.99984 4.58956 4.06626C3.40918 5.13268 2.60817 6.55446 2.30765 8.11658C2.00713 9.6787 2.22345 11.2962 2.92391 12.7244C3.00941 12.8986 3.03791 13.0949 2.99437 13.2834L2.34837 16.0827C2.33015 16.1613 2.33224 16.2432 2.35444 16.3207C2.37663 16.3982 2.41819 16.4688 2.47522 16.5258C2.53224 16.5829 2.60284 16.6244 2.68037 16.6466C2.7579 16.6688 2.83981 16.6709 2.91837 16.6527L5.71691 16.0059C5.90586 15.9645 6.1033 15.9897 6.27582 16.0772C7.27918 16.5699 8.38248 16.8251 9.50028 16.8229Z" stroke="#888D96" stroke-width="1.25" stroke-linecap="round" stroke-linejoin="round"/>
</svg>
