<svg width="19" height="19" viewBox="0 0 19 19" fill="none" xmlns="http://www.w3.org/2000/svg">
<path d="M4.75 6.33337H7.91667" stroke="#888D96" stroke-width="1.1875" stroke-linecap="round" stroke-linejoin="round"/>
<path d="M17.4167 8.3125C17.4167 8.25154 17.4167 7.89054 17.4151 7.86521C17.3866 7.46858 17.047 7.15271 16.6195 7.12658C16.5925 7.125 16.5601 7.125 16.4936 7.125H14.4337C13.0198 7.125 11.875 8.18821 11.875 9.5C11.875 10.8118 13.0205 11.875 14.4321 11.875H16.4928C16.5593 11.875 16.5918 11.875 16.6195 11.8734C17.047 11.8473 17.3874 11.5314 17.4151 11.1348C17.4167 11.1095 17.4167 10.7485 17.4167 10.6875" stroke="#888D96" stroke-width="1.1875" stroke-linecap="round"/>
<path d="M14.2497 10.2917C14.6869 10.2917 15.0413 9.93727 15.0413 9.50004C15.0413 9.06282 14.6869 8.70837 14.2497 8.70837C13.8124 8.70837 13.458 9.06282 13.458 9.50004C13.458 9.93727 13.8124 10.2917 14.2497 10.2917Z" fill="#888D96"/>
<path d="M10.2913 3.16669C13.2767 3.16669 14.7698 3.16669 15.6968 4.09452C16.3373 4.73419 16.536 5.64302 16.597 7.12502M7.91634 15.8334H10.2913C13.2767 15.8334 14.7698 15.8334 15.6968 14.9055C16.3373 14.2659 16.536 13.357 16.597 11.875M7.12467 3.16669C4.65942 3.1746 3.35238 3.25219 2.51084 4.09452C1.58301 5.02156 1.58301 6.51465 1.58301 9.50002C1.58301 12.4854 1.58301 13.9785 2.51084 14.9055C3.0278 15.4233 3.72051 15.6521 4.74967 15.7526" stroke="#888D96" stroke-width="1.1875" stroke-linecap="round"/>
</svg>
