<svg width="19" height="19" viewBox="0 0 19 19" fill="none" xmlns="http://www.w3.org/2000/svg">
<g clip-path="url(#clip0_301_4223)">
<path d="M8.6843 6.54311C8.51845 6.65712 8.3855 6.81274 8.29876 6.99435C8.22518 7.12945 8.10204 7.23071 7.95527 7.27681C7.80851 7.32291 7.64958 7.31025 7.51197 7.24149C7.37436 7.17274 7.2688 7.05325 7.21753 6.90821C7.16627 6.76317 7.1733 6.6039 7.23714 6.46394C7.39547 6.14569 7.64326 5.81002 8.02643 5.5551C8.41276 5.29623 8.90122 5.14581 9.49972 5.14581C10.0206 5.14581 10.5835 5.30019 11.0308 5.63585C11.2802 5.81814 11.4824 6.05736 11.6207 6.33358C11.7589 6.60981 11.8292 6.91507 11.8256 7.22394C11.8256 8.04173 11.4195 8.5856 11.0126 8.97748C10.8622 9.12235 10.6967 9.2609 10.5542 9.37965L10.4378 9.47702C10.3151 9.57622 10.2 9.68445 10.0935 9.80081V10.8854C10.0935 11.0429 10.0309 11.1939 9.91957 11.3052C9.80822 11.4166 9.65719 11.4791 9.49972 11.4791C9.34225 11.4791 9.19123 11.4166 9.07988 11.3052C8.96853 11.1939 8.90597 11.0429 8.90597 10.8854V9.71927C8.90597 9.53165 8.95901 9.32027 9.10151 9.13661C9.27568 8.91494 9.48626 8.72731 9.66993 8.57135L9.8148 8.45023L9.8156 8.44944C9.95176 8.33623 10.0721 8.23569 10.1877 8.12327C10.479 7.84223 10.6381 7.5881 10.6381 7.22394C10.6418 7.09941 10.6146 6.97591 10.5587 6.86454C10.5029 6.75316 10.4203 6.6574 10.3183 6.58585C10.1061 6.42673 9.80372 6.33331 9.49972 6.33331C9.10864 6.33331 8.8553 6.4291 8.6843 6.54311ZM10.2914 13.4583C10.2914 13.6683 10.208 13.8696 10.0595 14.0181C9.91105 14.1666 9.70968 14.25 9.49972 14.25C9.28976 14.25 9.08839 14.1666 8.93993 14.0181C8.79146 13.8696 8.70805 13.6683 8.70805 13.4583C8.70805 13.2484 8.79146 13.047 8.93993 12.8985C9.08839 12.7501 9.28976 12.6666 9.49972 12.6666C9.70968 12.6666 9.91105 12.7501 10.0595 12.8985C10.208 13.047 10.2914 13.2484 10.2914 13.4583Z" fill="#888D96"/>
<path d="M9.50033 0.791687C14.3097 0.791687 18.2087 4.69065 18.2087 9.50002C18.2087 14.3094 14.3097 18.2084 9.50033 18.2084C4.69095 18.2084 0.791992 14.3094 0.791992 9.50002C0.791992 4.69065 4.69095 0.791687 9.50033 0.791687ZM1.97949 9.50002C1.97949 11.4947 2.77186 13.4076 4.18229 14.8181C5.59272 16.2285 7.50568 17.0209 9.50033 17.0209C11.495 17.0209 13.4079 16.2285 14.8184 14.8181C16.2288 13.4076 17.0212 11.4947 17.0212 9.50002C17.0212 7.50537 16.2288 5.59242 14.8184 4.18199C13.4079 2.77156 11.495 1.97919 9.50033 1.97919C7.50568 1.97919 5.59272 2.77156 4.18229 4.18199C2.77186 5.59242 1.97949 7.50537 1.97949 9.50002Z" fill="#888D96"/>
</g>
<defs>
<clipPath id="clip0_301_4223">
<rect width="19" height="19" fill="white"/>
</clipPath>
</defs>
</svg>
