<svg width="33" height="32" viewBox="0 0 33 32" fill="none" xmlns="http://www.w3.org/2000/svg">
<path d="M6.5 12H26.5M6.5 10C6.5 9.46957 6.71071 8.96086 7.08579 8.58579C7.46086 8.21071 7.96957 8 8.5 8H24.5C25.0304 8 25.5391 8.21071 25.9142 8.58579C26.2893 8.96086 26.5 9.46957 26.5 10V22C26.5 22.5304 26.2893 23.0391 25.9142 23.4142C25.5391 23.7893 25.0304 24 24.5 24H8.5C7.96957 24 7.46086 23.7893 7.08579 23.4142C6.71071 23.0391 6.5 22.5304 6.5 22V10Z" stroke="#939393" stroke-width="1.5" stroke-linecap="round" stroke-linejoin="round"/>
<path d="M6.5 16H13.5C13.5 17 14.1 19 16.5 19C18.9 19 19.5 17 19.5 16H26.5" stroke="#939393" stroke-width="1.5" stroke-linecap="round" stroke-linejoin="round"/>
</svg>
