<svg width="25" height="24" viewBox="0 0 25 24" fill="none" xmlns="http://www.w3.org/2000/svg">
<path fill-rule="evenodd" clip-rule="evenodd" d="M2.5 7C2.5 6.20435 2.81607 5.44129 3.37868 4.87868C3.94129 4.31607 4.70435 4 5.5 4H19.5C20.2956 4 21.0587 4.31607 21.6213 4.87868C22.1839 5.44129 22.5 6.20435 22.5 7V17C22.5 17.7956 22.1839 18.5587 21.6213 19.1213C21.0587 19.6839 20.2956 20 19.5 20H5.5C4.70435 20 3.94129 19.6839 3.37868 19.1213C2.81607 18.5587 2.5 17.7956 2.5 17V7ZM5.5 7C5.23478 7 4.98043 7.10536 4.79289 7.29289C4.60536 7.48043 4.5 7.73478 4.5 8C4.5 8.26522 4.60536 8.51957 4.79289 8.70711C4.98043 8.89464 5.23478 9 5.5 9H19.5C19.7652 9 20.0196 8.89464 20.2071 8.70711C20.3946 8.51957 20.5 8.26522 20.5 8C20.5 7.73478 20.3946 7.48043 20.2071 7.29289C20.0196 7.10536 19.7652 7 19.5 7H5.5ZM4.5 13C4.5 12.7348 4.60536 12.4804 4.79289 12.2929C4.98043 12.1054 5.23478 12 5.5 12H9.5C9.528 12 9.556 12.0013 9.584 12.004C9.80489 11.9847 10.0259 12.0393 10.2124 12.1593C10.3988 12.2794 10.5401 12.4579 10.614 12.667C10.7522 13.0567 11.0077 13.3941 11.3454 13.6327C11.6831 13.8713 12.0865 13.9994 12.5 13.9994C12.9135 13.9994 13.3169 13.8713 13.6546 13.6327C13.9923 13.3941 14.2478 13.0567 14.386 12.667C14.4599 12.4579 14.6012 12.2794 14.7876 12.1593C14.9741 12.0393 15.1951 11.9847 15.416 12.004C15.4433 12.0007 15.4713 11.9993 15.5 12H19.5C19.7652 12 20.0196 12.1054 20.2071 12.2929C20.3946 12.4804 20.5 12.7348 20.5 13C20.5 13.2652 20.3946 13.5196 20.2071 13.7071C20.0196 13.8946 19.7652 14 19.5 14H15.964C15.6129 14.6081 15.108 15.113 14.4999 15.4641C13.8919 15.8151 13.2021 16 12.5 16C11.7977 16.0002 11.1077 15.8154 10.4995 15.4643C9.89124 15.1132 9.38615 14.6082 9.035 14H5.5C5.23478 14 4.98043 13.8946 4.79289 13.7071C4.60536 13.5196 4.5 13.2652 4.5 13Z" fill="#4C4DDC"/>
</svg>
