<svg width="25" height="24" viewBox="0 0 25 24" fill="none" xmlns="http://www.w3.org/2000/svg">
<path d="M3.75977 11.22V15.71C3.75977 20.2 5.55977 22 10.0498 22H15.4398C19.9298 22 21.7298 20.2 21.7298 15.71V11.22" fill="#4C4DDC"/>
<path d="M3.75977 11.22V15.71C3.75977 20.2 5.55977 22 10.0498 22H15.4398C19.9298 22 21.7298 20.2 21.7298 15.71V11.22" stroke="white" stroke-width="1.5" stroke-linecap="round" stroke-linejoin="round"/>
<path d="M12.7505 12C14.5805 12 15.9305 10.51 15.7505 8.68L15.0905 2H10.4205L9.75048 8.68C9.57048 10.51 10.9205 12 12.7505 12Z" fill="#4C4DDC" stroke="white" stroke-width="1.5" stroke-linecap="round" stroke-linejoin="round"/>
<path d="M19.0598 12C21.0798 12 22.5598 10.36 22.3598 8.35L22.0798 5.6C21.7198 3 20.7198 2 18.0998 2H15.0498L15.7498 9.01C15.9198 10.66 17.4098 12 19.0598 12Z" fill="#4C4DDC" stroke="white" stroke-width="1.5" stroke-linecap="round" stroke-linejoin="round"/>
<path d="M6.39037 12C8.04037 12 9.53037 10.66 9.69037 9.01L9.91037 6.8L10.3904 2H7.34037C4.72037 2 3.72037 3 3.36037 5.6L3.09037 8.35C2.89037 10.36 4.37037 12 6.39037 12Z" fill="#4C4DDC" stroke="white" stroke-width="1.5" stroke-linecap="round" stroke-linejoin="round"/>
<path d="M12.75 17C11.08 17 10.25 17.83 10.25 19.5V22H15.25V19.5C15.25 17.83 14.42 17 12.75 17Z" fill="#4C4DDC" stroke="white" stroke-width="1.5" stroke-linecap="round" stroke-linejoin="round"/>
</svg>
