<svg width="33" height="32" viewBox="0 0 33 32" fill="none" xmlns="http://www.w3.org/2000/svg">
<path d="M7.50977 15.22V19.71C7.50977 24.2 9.30977 26 13.7998 26H19.1898C23.6798 26 25.4798 24.2 25.4798 19.71V15.22" stroke="#939393" stroke-width="1.5" stroke-linecap="round" stroke-linejoin="round"/>
<path d="M16.5005 16C18.3305 16 19.6805 14.51 19.5005 12.68L18.8405 6H14.1705L13.5005 12.68C13.3205 14.51 14.6705 16 16.5005 16Z" stroke="#939393" stroke-width="1.5" stroke-linecap="round" stroke-linejoin="round"/>
<path d="M22.8098 16C24.8298 16 26.3098 14.36 26.1098 12.35L25.8298 9.6C25.4698 7 24.4698 6 21.8498 6H18.7998L19.4998 13.01C19.6698 14.66 21.1598 16 22.8098 16Z" stroke="#939393" stroke-width="1.5" stroke-linecap="round" stroke-linejoin="round"/>
<path d="M10.1404 16C11.7904 16 13.2804 14.66 13.4404 13.01L13.6604 10.8L14.1404 6H11.0904C8.47037 6 7.47037 7 7.11037 9.6L6.84037 12.35C6.64037 14.36 8.12037 16 10.1404 16Z" stroke="#939393" stroke-width="1.5" stroke-linecap="round" stroke-linejoin="round"/>
<path d="M16.5 21C14.83 21 14 21.83 14 23.5V26H19V23.5C19 21.83 18.17 21 16.5 21Z" stroke="#939393" stroke-width="1.5" stroke-linecap="round" stroke-linejoin="round"/>
</svg>
