<svg width="33" height="33" viewBox="0 0 33 33" fill="none" xmlns="http://www.w3.org/2000/svg">
<rect width="33" height="33" rx="10" fill="#4C4DDC" fill-opacity="0.18"/>
<path d="M13.4884 19.5356L19.5598 13.4642M8.60693 21.357C8.60693 21.6787 8.73453 21.9872 8.96173 22.2148C9.18893 22.4425 9.49716 22.5707 9.81879 22.5713H23.1808C23.5024 22.5707 23.8107 22.4425 24.0379 22.2148C24.265 21.9872 24.3926 21.6787 24.3926 21.357V18.8872C23.8684 18.745 23.4054 18.4342 23.0754 18.0027C22.7453 17.5713 22.5665 17.0431 22.5665 16.4999C22.5665 15.9567 22.7453 15.4285 23.0754 14.9971C23.4054 14.5656 23.8684 14.2548 24.3926 14.1126V11.6428C24.3926 11.3211 24.265 11.0126 24.0379 10.785C23.8107 10.5573 23.5024 10.4291 23.1808 10.4285H9.81879C9.49716 10.4291 9.18893 10.5573 8.96173 10.785C8.73453 11.0126 8.60693 11.3211 8.60693 11.6428V14.1078C9.13541 14.2468 9.60299 14.5568 9.93665 14.9896C10.2703 15.4224 10.4513 15.9534 10.4513 16.4999C10.4513 17.0463 10.2703 17.5774 9.93665 18.0102C9.60299 18.4429 9.13541 18.753 8.60693 18.892V21.357Z" stroke="#4C4DDC" stroke-width="1.21429" stroke-linecap="round" stroke-linejoin="round"/>
<path d="M14.0954 14.6784C14.2564 14.6784 14.4109 14.6144 14.5247 14.5006C14.6386 14.3867 14.7026 14.2323 14.7026 14.0713C14.7026 13.9102 14.6386 13.7558 14.5247 13.6419C14.4109 13.5281 14.2564 13.4641 14.0954 13.4641C13.9344 13.4641 13.78 13.5281 13.6661 13.6419C13.5522 13.7558 13.4883 13.9102 13.4883 14.0713C13.4883 14.2323 13.5522 14.3867 13.6661 14.5006C13.78 14.6144 13.9344 14.6784 14.0954 14.6784ZM18.9526 19.5355C19.1136 19.5355 19.268 19.4716 19.3819 19.3577C19.4957 19.2439 19.5597 19.0894 19.5597 18.9284C19.5597 18.7674 19.4957 18.6129 19.3819 18.4991C19.268 18.3852 19.1136 18.3213 18.9526 18.3213C18.7915 18.3213 18.6371 18.3852 18.5233 18.4991C18.4094 18.6129 18.3454 18.7674 18.3454 18.9284C18.3454 19.0894 18.4094 19.2439 18.5233 19.3577C18.6371 19.4716 18.7915 19.5355 18.9526 19.5355Z" stroke="#4C4DDC" stroke-width="1.21429" stroke-linecap="round" stroke-linejoin="round"/>
</svg>
