<svg width="33" height="33" viewBox="0 0 33 33" fill="none" xmlns="http://www.w3.org/2000/svg">
<rect width="33" height="33" rx="10" fill="#4C4DDC" fill-opacity="0.18"/>
<path d="M16.5 23.9375L12.0184 18.6521C11.9561 18.5727 11.8945 18.4929 11.8335 18.4125C11.0683 17.4039 10.6548 16.1723 10.6563 14.9062C10.6563 13.3564 11.2719 11.87 12.3678 10.7741C13.4638 9.67818 14.9501 9.0625 16.5 9.0625C18.0499 9.0625 19.5362 9.67818 20.6322 10.7741C21.7281 11.87 22.3438 13.3564 22.3438 14.9062C22.345 16.1717 21.9317 17.4026 21.167 18.4109L21.1665 18.4125C21.1665 18.4125 21.0071 18.6218 20.9832 18.65L16.5 23.9375ZM12.6819 17.7723C12.6819 17.7723 12.8057 17.936 12.8338 17.971L16.5 22.2949L20.1709 17.9652C20.1943 17.936 20.3186 17.7713 20.3192 17.7708C20.9446 16.9469 21.2825 15.9406 21.2813 14.9062C21.2813 13.6382 20.7775 12.4221 19.8809 11.5254C18.9842 10.6287 17.7681 10.125 16.5 10.125C15.2319 10.125 14.0158 10.6287 13.1191 11.5254C12.2225 12.4221 11.7188 13.6382 11.7188 14.9062C11.7174 15.9413 12.0558 16.9482 12.6819 17.7723Z" fill="#4C4DDC"/>
<path d="M19.1562 17.5625H18.0938V13.3125H14.9062V17.5625H13.8438V13.3125C13.8438 13.0307 13.9557 12.7605 14.1549 12.5612C14.3542 12.3619 14.6245 12.25 14.9062 12.25H18.0938C18.3755 12.25 18.6458 12.3619 18.8451 12.5612C19.0443 12.7605 19.1562 13.0307 19.1562 13.3125V17.5625Z" fill="#4C4DDC"/>
<path d="M15.9688 16.5H17.0312V17.5625H15.9688V16.5ZM15.9688 14.375H17.0312V15.4375H15.9688V14.375Z" fill="#4C4DDC"/>
</svg>
