<svg width="19" height="19" viewBox="0 0 19 19" fill="none" xmlns="http://www.w3.org/2000/svg">
    <g clip-path="url(#clip0_99_721)">
        <path
            d="M4.88475 14.2499C5.04831 13.7864 5.35162 13.385 5.75289 13.101C6.15415 12.8171 6.63361 12.6646 7.12516 12.6646C7.61672 12.6646 8.09617 12.8171 8.49744 13.101C8.8987 13.385 9.20202 13.7864 9.36558 14.2499H17.4168V15.8332H9.36558C9.20202 16.2968 8.8987 16.6982 8.49744 16.9821C8.09617 17.266 7.61672 17.4185 7.12516 17.4185C6.63361 17.4185 6.15415 17.266 5.75289 16.9821C5.35162 16.6982 5.04831 16.2968 4.88475 15.8332H1.5835V14.2499H4.88475ZM9.63475 8.70824C9.79831 8.24469 10.1016 7.84329 10.5029 7.55936C10.9042 7.27544 11.3836 7.12297 11.8752 7.12297C12.3667 7.12297 12.8462 7.27544 13.2474 7.55936C13.6487 7.84329 13.952 8.24469 14.1156 8.70824H17.4168V10.2916H14.1156C13.952 10.7551 13.6487 11.1565 13.2474 11.4404C12.8462 11.7244 12.3667 11.8768 11.8752 11.8768C11.3836 11.8768 10.9042 11.7244 10.5029 11.4404C10.1016 11.1565 9.79831 10.7551 9.63475 10.2916H1.5835V8.70824H9.63475ZM4.88475 3.16657C5.04831 2.70303 5.35162 2.30162 5.75289 2.0177C6.15415 1.73377 6.63361 1.5813 7.12516 1.5813C7.61672 1.5813 8.09617 1.73377 8.49744 2.0177C8.8987 2.30162 9.20202 2.70303 9.36558 3.16657H17.4168V4.74991H9.36558C9.20202 5.21345 8.8987 5.61485 8.49744 5.89878C8.09617 6.18271 7.61672 6.33518 7.12516 6.33518C6.63361 6.33518 6.15415 6.18271 5.75289 5.89878C5.35162 5.61485 5.04831 5.21345 4.88475 4.74991H1.5835V3.16657H4.88475ZM7.12516 4.74991C7.33513 4.74991 7.53649 4.6665 7.68496 4.51803C7.83342 4.36957 7.91683 4.1682 7.91683 3.95824C7.91683 3.74828 7.83342 3.54691 7.68496 3.39845C7.53649 3.24998 7.33513 3.16657 7.12516 3.16657C6.9152 3.16657 6.71384 3.24998 6.56537 3.39845C6.4169 3.54691 6.3335 3.74828 6.3335 3.95824C6.3335 4.1682 6.4169 4.36957 6.56537 4.51803C6.71384 4.6665 6.9152 4.74991 7.12516 4.74991ZM11.8752 10.2916C12.0851 10.2916 12.2865 10.2082 12.435 10.0597C12.5834 9.91123 12.6668 9.70987 12.6668 9.49991C12.6668 9.28994 12.5834 9.08858 12.435 8.94011C12.2865 8.79165 12.0851 8.70824 11.8752 8.70824C11.6652 8.70824 11.4638 8.79165 11.3154 8.94011C11.1669 9.08858 11.0835 9.28994 11.0835 9.49991C11.0835 9.70987 11.1669 9.91123 11.3154 10.0597C11.4638 10.2082 11.6652 10.2916 11.8752 10.2916ZM7.12516 15.8332C7.33513 15.8332 7.53649 15.7498 7.68496 15.6014C7.83342 15.4529 7.91683 15.2515 7.91683 15.0416C7.91683 14.8316 7.83342 14.6302 7.68496 14.4818C7.53649 14.3333 7.33513 14.2499 7.12516 14.2499C6.9152 14.2499 6.71384 14.3333 6.56537 14.4818C6.4169 14.6302 6.3335 14.8316 6.3335 15.0416C6.3335 15.2515 6.4169 15.4529 6.56537 15.6014C6.71384 15.7498 6.9152 15.8332 7.12516 15.8332Z"
            fill="#4C4DDC" />
    </g>
    <defs>
        <clipPath id="clip0_99_721">
            <rect width="19" height="19" fill="white" />
        </clipPath>
    </defs>
</svg>