<svg width="19" height="19" viewBox="0 0 19 19" fill="none" xmlns="http://www.w3.org/2000/svg">
<g clip-path="url(#clip0_366_68644)">
<path d="M4.8845 14.2506C5.04806 13.7871 5.35138 13.3857 5.75264 13.1018C6.15391 12.8178 6.63336 12.6654 7.12492 12.6654C7.61648 12.6654 8.09593 12.8178 8.49719 13.1018C8.89846 13.3857 9.20178 13.7871 9.36534 14.2506H17.4166V15.834H9.36534C9.20178 16.2975 8.89846 16.6989 8.49719 16.9828C8.09593 17.2668 7.61648 17.4192 7.12492 17.4192C6.63336 17.4192 6.15391 17.2668 5.75264 16.9828C5.35138 16.6989 5.04806 16.2975 4.8845 15.834H1.58325V14.2506H4.8845ZM9.6345 8.70897C9.79806 8.24542 10.1014 7.84402 10.5026 7.5601C10.9039 7.27617 11.3834 7.1237 11.8749 7.1237C12.3665 7.1237 12.8459 7.27617 13.2472 7.5601C13.6485 7.84402 13.9518 8.24542 14.1153 8.70897H17.4166V10.2923H14.1153C13.9518 10.7559 13.6485 11.1573 13.2472 11.4412C12.8459 11.7251 12.3665 11.8776 11.8749 11.8776C11.3834 11.8776 10.9039 11.7251 10.5026 11.4412C10.1014 11.1573 9.79806 10.7559 9.6345 10.2923H1.58325V8.70897H9.6345ZM4.8845 3.1673C5.04806 2.70376 5.35138 2.30236 5.75264 2.01843C6.15391 1.7345 6.63336 1.58203 7.12492 1.58203C7.61648 1.58203 8.09593 1.7345 8.49719 2.01843C8.89846 2.30236 9.20178 2.70376 9.36534 3.1673H17.4166V4.75064H9.36534C9.20178 5.21418 8.89846 5.61559 8.49719 5.89951C8.09593 6.18344 7.61648 6.33591 7.12492 6.33591C6.63336 6.33591 6.15391 6.18344 5.75264 5.89951C5.35138 5.61559 5.04806 5.21418 4.8845 4.75064H1.58325V3.1673H4.8845ZM7.12492 4.75064C7.33488 4.75064 7.53625 4.66723 7.68471 4.51876C7.83318 4.3703 7.91659 4.16893 7.91659 3.95897C7.91659 3.74901 7.83318 3.54764 7.68471 3.39918C7.53625 3.25071 7.33488 3.1673 7.12492 3.1673C6.91496 3.1673 6.71359 3.25071 6.56513 3.39918C6.41666 3.54764 6.33325 3.74901 6.33325 3.95897C6.33325 4.16893 6.41666 4.3703 6.56513 4.51876C6.71359 4.66723 6.91496 4.75064 7.12492 4.75064ZM11.8749 10.2923C12.0849 10.2923 12.2862 10.2089 12.4347 10.0604C12.5832 9.91196 12.6666 9.7106 12.6666 9.50064C12.6666 9.29067 12.5832 9.08931 12.4347 8.94084C12.2862 8.79238 12.0849 8.70897 11.8749 8.70897C11.665 8.70897 11.4636 8.79238 11.3151 8.94084C11.1667 9.08931 11.0833 9.29067 11.0833 9.50064C11.0833 9.7106 11.1667 9.91196 11.3151 10.0604C11.4636 10.2089 11.665 10.2923 11.8749 10.2923ZM7.12492 15.834C7.33488 15.834 7.53625 15.7506 7.68471 15.6021C7.83318 15.4536 7.91659 15.2523 7.91659 15.0423C7.91659 14.8323 7.83318 14.631 7.68471 14.4825C7.53625 14.334 7.33488 14.2506 7.12492 14.2506C6.91496 14.2506 6.71359 14.334 6.56513 14.4825C6.41666 14.631 6.33325 14.8323 6.33325 15.0423C6.33325 15.2523 6.41666 15.4536 6.56513 15.6021C6.71359 15.7506 6.91496 15.834 7.12492 15.834Z" fill="#4C4DDC"/>
</g>
<defs>
<clipPath id="clip0_366_68644">
<rect width="19" height="19" fill="white"/>
</clipPath>
</defs>
</svg>
