<svg width="18" height="21" viewBox="0 0 18 21" fill="none" xmlns="http://www.w3.org/2000/svg">
<path d="M9.0199 0C5.3399 0 2.3599 2.98 2.3599 6.66V8.76C2.3599 9.44 2.0799 10.46 1.7299 11.04L0.459898 13.16C-0.320102 14.47 0.219898 15.93 1.6599 16.41C6.4399 18 11.6099 18 16.3899 16.41C17.7399 15.96 18.3199 14.38 17.5899 13.16L16.3199 11.04C15.9699 10.46 15.6899 9.43 15.6899 8.76V6.66C15.6799 3 12.6799 0 9.0199 0Z" fill="#4C4DDC"/>
<path d="M12.3299 16.8199C12.3299 18.6499 10.8299 20.1499 8.99992 20.1499C8.08992 20.1499 7.24992 19.7699 6.64992 19.1699C6.04992 18.5699 5.66992 17.7299 5.66992 16.8199" stroke="#4C4DDC" stroke-width="1.5" stroke-miterlimit="10"/>
<rect x="8" y="4" width="2" height="5" rx="1" fill="white"/>
</svg>
