<svg width="33" height="32" viewBox="0 0 33 32" fill="none" xmlns="http://www.w3.org/2000/svg">
<path d="M16.5199 6C12.8399 6 9.8599 8.98 9.8599 12.66V14.76C9.8599 15.44 9.5799 16.46 9.2299 17.04L7.9599 19.16C7.1799 20.47 7.7199 21.93 9.1599 22.41C13.9399 24 19.1099 24 23.8899 22.41C25.2399 21.96 25.8199 20.38 25.0899 19.16L23.8199 17.04C23.4699 16.46 23.1899 15.43 23.1899 14.76V12.66C23.1799 9 20.1799 6 16.5199 6Z" fill="#4C4DDC"/>
<path d="M19.8299 22.8199C19.8299 24.6499 18.3299 26.1499 16.4999 26.1499C15.5899 26.1499 14.7499 25.7699 14.1499 25.1699C13.5499 24.5699 13.1699 23.7299 13.1699 22.8199" stroke="#4C4DDC" stroke-width="1.5" stroke-miterlimit="10"/>
<path d="M16.5 10.4399V13.7699" stroke="white" stroke-width="1.5" stroke-miterlimit="10" stroke-linecap="round"/>
</svg>
