<svg width="33" height="32" viewBox="0 0 33 32" fill="none" xmlns="http://www.w3.org/2000/svg">
<path d="M16.25 10.4399V13.7699" stroke="#939393" stroke-width="1.5" stroke-miterlimit="10" stroke-linecap="round"/>
<path d="M16.2699 6C12.5899 6 9.6099 8.98 9.6099 12.66V14.76C9.6099 15.44 9.3299 16.46 8.9799 17.04L7.7099 19.16C6.9299 20.47 7.4699 21.93 8.9099 22.41C13.6899 24 18.8599 24 23.6399 22.41C24.9899 21.96 25.5699 20.38 24.8399 19.16L23.5699 17.04C23.2199 16.46 22.9399 15.43 22.9399 14.76V12.66C22.9299 9 19.9299 6 16.2699 6Z" stroke="#939393" stroke-width="1.5" stroke-miterlimit="10" stroke-linecap="round"/>
<path d="M19.5799 22.8199C19.5799 24.6499 18.0799 26.1499 16.2499 26.1499C15.3399 26.1499 14.4999 25.7699 13.8999 25.1699C13.2999 24.5699 12.9199 23.7299 12.9199 22.8199" stroke="#939393" stroke-width="1.5" stroke-miterlimit="10"/>
</svg>
