<svg width="20" height="20" viewBox="0 0 20 20" fill="none" xmlns="http://www.w3.org/2000/svg">
<g clip-path="url(#clip0_99_2297)">
<path d="M3 8.5C1.9 8.5 1 9.4 1 10.5C1 11.6 1.9 12.5 3 12.5C4.1 12.5 5 11.6 5 10.5C5 9.4 4.1 8.5 3 8.5Z" stroke="#4C4DDC" stroke-width="1.5"/>
<path d="M17 8.5C15.9 8.5 15 9.4 15 10.5C15 11.6 15.9 12.5 17 12.5C18.1 12.5 19 11.6 19 10.5C19 9.4 18.1 8.5 17 8.5Z" stroke="#4C4DDC" stroke-width="1.5"/>
<path d="M10 8.5C8.9 8.5 8 9.4 8 10.5C8 11.6 8.9 12.5 10 12.5C11.1 12.5 12 11.6 12 10.5C12 9.4 11.1 8.5 10 8.5Z" stroke="#4C4DDC" stroke-width="1.5"/>
</g>
<defs>
<clipPath id="clip0_99_2297">
<rect width="20" height="20" fill="white"/>
</clipPath>
</defs>
</svg>
