<svg width="335" height="108" viewBox="0 0 335 108" fill="none" xmlns="http://www.w3.org/2000/svg">
<path d="M48 108C25.3726 108 14.0589 108 7.02944 100.971C0 93.9411 0 82.6274 0 60V48C0 25.3726 0 14.0589 7.02944 7.02944C14.0589 4.88758e-06 25.3726 4.88758e-06 48 4.88758e-06H287C309.627 4.88758e-06 320.941 4.88758e-06 327.971 7.02944C335 14.0589 335 25.3726 335 48V60C335 82.6274 335 93.9411 327.971 100.971C320.941 108 309.627 108 287 108H48Z" fill="#4C4DDC"/>
<path opacity="0.2" fill-rule="evenodd" clip-rule="evenodd" d="M163.561 0H142.01C131.27 22.9956 107.936 38.9296 80.8813 38.9296H0.0208273C-1.85563e-10 41.7336 0 44.7501 0 48V58.9296H80.8813C119.189 58.9296 151.742 34.293 163.561 0Z" fill="url(#paint0_linear_299_2552)"/>
<path opacity="0.2" fill-rule="evenodd" clip-rule="evenodd" d="M335 60.2067C330.083 59.3655 325.029 58.9272 319.872 58.9272H234.736C199.927 58.9272 169.781 78.8944 155.128 108H178.417C190.937 90.4045 211.496 78.9272 234.736 78.9272H319.872C324.949 78.9272 329.898 79.475 334.663 80.5146C334.997 74.9911 335 68.3313 335 60.2067Z" fill="url(#paint1_linear_299_2552)"/>
<g filter="url(#filter0_b_299_2552)">
<path fill-rule="evenodd" clip-rule="evenodd" d="M285.169 0V49.9269C285.169 73.443 296.765 94.2508 314.551 106.944C307.861 108 299.029 108 287 108H286.409C273.158 92.3258 265.169 72.0593 265.169 49.9269V0H285.169Z" fill="url(#paint2_linear_299_2552)" fill-opacity="0.6"/>
</g>
<defs>
<filter id="filter0_b_299_2552" x="261.169" y="-4" width="57.3818" height="116" filterUnits="userSpaceOnUse" color-interpolation-filters="sRGB">
<feFlood flood-opacity="0" result="BackgroundImageFix"/>
<feGaussianBlur in="BackgroundImageFix" stdDeviation="2"/>
<feComposite in2="SourceAlpha" operator="in" result="effect1_backgroundBlur_299_2552"/>
<feBlend mode="normal" in="SourceGraphic" in2="effect1_backgroundBlur_299_2552" result="shape"/>
</filter>
<linearGradient id="paint0_linear_299_2552" x1="267.036" y1="-66.7776" x2="9.40681" y2="15.9997" gradientUnits="userSpaceOnUse">
<stop stop-color="white" stop-opacity="0"/>
<stop offset="1" stop-color="white"/>
</linearGradient>
<linearGradient id="paint1_linear_299_2552" x1="139.01" y1="85.9228" x2="238.423" y2="90.0599" gradientUnits="userSpaceOnUse">
<stop stop-color="white" stop-opacity="0"/>
<stop offset="1" stop-color="white"/>
</linearGradient>
<linearGradient id="paint2_linear_299_2552" x1="332.154" y1="-146.91" x2="246.099" y2="-140.108" gradientUnits="userSpaceOnUse">
<stop stop-color="white"/>
<stop offset="1" stop-color="white"/>
</linearGradient>
</defs>
</svg>
