<svg width="69" height="69" viewBox="0 0 69 69" fill="none" xmlns="http://www.w3.org/2000/svg">
<path d="M20.2243 0C20.8814 0 21.414 0.532632 21.414 1.18966C21.414 1.84671 20.8814 2.37931 20.2243 2.37931C19.5673 2.37931 19.0347 1.84671 19.0347 1.18966C19.0347 0.532632 19.5673 0 20.2243 0Z" fill="#4C4DDC"/>
<path d="M22.6032 0C23.2603 0 23.7929 0.532632 23.7929 1.18966C23.7929 1.84671 23.2603 2.37931 22.6032 2.37931C21.9462 2.37931 21.4136 1.84671 21.4136 1.18966C21.4136 0.532632 21.9462 0 22.6032 0Z" fill="#4C4DDC"/>
<path d="M24.9826 0C25.6397 0 26.1723 0.532632 26.1723 1.18966C26.1723 1.84671 25.6397 2.37931 24.9826 2.37931C24.3256 2.37931 23.793 1.84671 23.793 1.18966C23.793 0.532632 24.3256 0 24.9826 0Z" fill="#4C4DDC"/>
<path d="M32.1208 0C32.7779 0 33.3105 0.532632 33.3105 1.18966C33.3105 1.84671 32.7779 2.37931 32.1208 2.37931C31.4638 2.37931 30.9312 1.84671 30.9312 1.18966C30.9312 0.532632 31.4638 0 32.1208 0Z" fill="#4C4DDC"/>
<path d="M34.5002 0C35.1573 0 35.6899 0.532632 35.6899 1.18966C35.6899 1.84671 35.1573 2.37931 34.5002 2.37931C33.8432 2.37931 33.3105 1.84671 33.3105 1.18966C33.3105 0.532632 33.8432 0 34.5002 0Z" fill="#4C4DDC"/>
<path d="M36.8791 0C37.5362 0 38.0688 0.532632 38.0688 1.18966C38.0688 1.84671 37.5362 2.37931 36.8791 2.37931C36.2221 2.37931 35.6895 1.84671 35.6895 1.18966C35.6895 0.532632 36.2221 0 36.8791 0Z" fill="#4C4DDC"/>
<path d="M44.0173 0C44.6743 0 45.2069 0.532632 45.2069 1.18966C45.2069 1.84671 44.6743 2.37931 44.0173 2.37931C43.3603 2.37931 42.8276 1.84671 42.8276 1.18966C42.8276 0.532632 43.3603 0 44.0173 0Z" fill="#4C4DDC"/>
<path d="M20.2243 2.37939C20.8814 2.37939 21.414 2.91203 21.414 3.56905C21.414 4.22611 20.8814 4.7587 20.2243 4.7587C19.5673 4.7587 19.0347 4.22611 19.0347 3.56905C19.0347 2.91203 19.5673 2.37939 20.2243 2.37939Z" fill="#4C4DDC"/>
<path d="M22.6032 2.37939C23.2603 2.37939 23.7929 2.91203 23.7929 3.56905C23.7929 4.22611 23.2603 4.7587 22.6032 4.7587C21.9462 4.7587 21.4136 4.22611 21.4136 3.56905C21.4136 2.91203 21.9462 2.37939 22.6032 2.37939Z" fill="#4C4DDC"/>
<path d="M24.9826 2.37939C25.6397 2.37939 26.1723 2.91203 26.1723 3.56905C26.1723 4.22611 25.6397 4.7587 24.9826 4.7587C24.3256 4.7587 23.793 4.22611 23.793 3.56905C23.793 2.91203 24.3256 2.37939 24.9826 2.37939Z" fill="#4C4DDC"/>
<path d="M27.362 2.37939C28.0191 2.37939 28.5517 2.91203 28.5517 3.56905C28.5517 4.22611 28.0191 4.7587 27.362 4.7587C26.705 4.7587 26.1724 4.22611 26.1724 3.56905C26.1724 2.91203 26.705 2.37939 27.362 2.37939Z" fill="#4C4DDC"/>
<path d="M29.7414 2.37939C30.3985 2.37939 30.9311 2.91203 30.9311 3.56905C30.9311 4.22611 30.3985 4.7587 29.7414 4.7587C29.0844 4.7587 28.5518 4.22611 28.5518 3.56905C28.5518 2.91203 29.0844 2.37939 29.7414 2.37939Z" fill="#4C4DDC"/>
<path d="M32.1208 2.37939C32.7779 2.37939 33.3105 2.91203 33.3105 3.56905C33.3105 4.22611 32.7779 4.7587 32.1208 4.7587C31.4638 4.7587 30.9312 4.22611 30.9312 3.56905C30.9312 2.91203 31.4638 2.37939 32.1208 2.37939Z" fill="#4C4DDC"/>
<path d="M34.5002 2.37939C35.1573 2.37939 35.6899 2.91203 35.6899 3.56905C35.6899 4.22611 35.1573 4.7587 34.5002 4.7587C33.8432 4.7587 33.3105 4.22611 33.3105 3.56905C33.3105 2.91203 33.8432 2.37939 34.5002 2.37939Z" fill="#4C4DDC"/>
<path d="M36.8791 2.37939C37.5362 2.37939 38.0688 2.91203 38.0688 3.56905C38.0688 4.22611 37.5362 4.7587 36.8791 4.7587C36.2221 4.7587 35.6895 4.22611 35.6895 3.56905C35.6895 2.91203 36.2221 2.37939 36.8791 2.37939Z" fill="#4C4DDC"/>
<path d="M41.6379 2.37939C42.295 2.37939 42.8276 2.91203 42.8276 3.56905C42.8276 4.22611 42.295 4.7587 41.6379 4.7587C40.9809 4.7587 40.4482 4.22611 40.4482 3.56905C40.4482 2.91203 40.9809 2.37939 41.6379 2.37939Z" fill="#4C4DDC"/>
<path d="M44.0173 2.37939C44.6743 2.37939 45.2069 2.91203 45.2069 3.56905C45.2069 4.22611 44.6743 4.7587 44.0173 4.7587C43.3603 4.7587 42.8276 4.22611 42.8276 3.56905C42.8276 2.91203 43.3603 2.37939 44.0173 2.37939Z" fill="#4C4DDC"/>
<path d="M46.3967 2.37939C47.0537 2.37939 47.5863 2.91203 47.5863 3.56905C47.5863 4.22611 47.0537 4.7587 46.3967 4.7587C45.7397 4.7587 45.207 4.22611 45.207 3.56905C45.207 2.91203 45.7397 2.37939 46.3967 2.37939Z" fill="#4C4DDC"/>
<path d="M48.7761 2.37939C49.4331 2.37939 49.9657 2.91203 49.9657 3.56905C49.9657 4.22611 49.4331 4.7587 48.7761 4.7587C48.1191 4.7587 47.5864 4.22611 47.5864 3.56905C47.5864 2.91203 48.1191 2.37939 48.7761 2.37939Z" fill="#4C4DDC"/>
<path d="M20.2243 4.75854C20.8814 4.75854 21.414 5.29118 21.414 5.9482C21.414 6.60526 20.8814 7.13786 20.2243 7.13786C19.5673 7.13786 19.0347 6.60526 19.0347 5.9482C19.0347 5.29118 19.5673 4.75854 20.2243 4.75854Z" fill="#4C4DDC"/>
<path d="M22.6032 4.75854C23.2603 4.75854 23.7929 5.29118 23.7929 5.9482C23.7929 6.60526 23.2603 7.13786 22.6032 7.13786C21.9462 7.13786 21.4136 6.60526 21.4136 5.9482C21.4136 5.29118 21.9462 4.75854 22.6032 4.75854Z" fill="#4C4DDC"/>
<path d="M24.9826 4.75854C25.6397 4.75854 26.1723 5.29118 26.1723 5.9482C26.1723 6.60526 25.6397 7.13786 24.9826 7.13786C24.3256 7.13786 23.793 6.60526 23.793 5.9482C23.793 5.29118 24.3256 4.75854 24.9826 4.75854Z" fill="#4C4DDC"/>
<path d="M27.362 4.75854C28.0191 4.75854 28.5517 5.29118 28.5517 5.9482C28.5517 6.60526 28.0191 7.13786 27.362 7.13786C26.705 7.13786 26.1724 6.60526 26.1724 5.9482C26.1724 5.29118 26.705 4.75854 27.362 4.75854Z" fill="#4C4DDC"/>
<path d="M32.1208 4.75854C32.7779 4.75854 33.3105 5.29118 33.3105 5.9482C33.3105 6.60526 32.7779 7.13786 32.1208 7.13786C31.4638 7.13786 30.9312 6.60526 30.9312 5.9482C30.9312 5.29118 31.4638 4.75854 32.1208 4.75854Z" fill="#4C4DDC"/>
<path d="M34.5002 4.75854C35.1573 4.75854 35.6899 5.29118 35.6899 5.9482C35.6899 6.60526 35.1573 7.13786 34.5002 7.13786C33.8432 7.13786 33.3105 6.60526 33.3105 5.9482C33.3105 5.29118 33.8432 4.75854 34.5002 4.75854Z" fill="#4C4DDC"/>
<path d="M48.7761 4.75854C49.4331 4.75854 49.9657 5.29118 49.9657 5.9482C49.9657 6.60526 49.4331 7.13786 48.7761 7.13786C48.1191 7.13786 47.5864 6.60526 47.5864 5.9482C47.5864 5.29118 48.1191 4.75854 48.7761 4.75854Z" fill="#4C4DDC"/>
<path d="M22.6032 7.13794C23.2603 7.13794 23.7929 7.67057 23.7929 8.32759C23.7929 8.98465 23.2603 9.51725 22.6032 9.51725C21.9462 9.51725 21.4136 8.98465 21.4136 8.32759C21.4136 7.67057 21.9462 7.13794 22.6032 7.13794Z" fill="#4C4DDC"/>
<path d="M24.9826 7.13794C25.6397 7.13794 26.1723 7.67057 26.1723 8.32759C26.1723 8.98465 25.6397 9.51725 24.9826 9.51725C24.3256 9.51725 23.793 8.98465 23.793 8.32759C23.793 7.67057 24.3256 7.13794 24.9826 7.13794Z" fill="#4C4DDC"/>
<path d="M27.362 7.13794C28.0191 7.13794 28.5517 7.67057 28.5517 8.32759C28.5517 8.98465 28.0191 9.51725 27.362 9.51725C26.705 9.51725 26.1724 8.98465 26.1724 8.32759C26.1724 7.67057 26.705 7.13794 27.362 7.13794Z" fill="#4C4DDC"/>
<path d="M29.7414 7.13794C30.3985 7.13794 30.9311 7.67057 30.9311 8.32759C30.9311 8.98465 30.3985 9.51725 29.7414 9.51725C29.0844 9.51725 28.5518 8.98465 28.5518 8.32759C28.5518 7.67057 29.0844 7.13794 29.7414 7.13794Z" fill="#4C4DDC"/>
<path d="M34.5002 7.13794C35.1573 7.13794 35.6899 7.67057 35.6899 8.32759C35.6899 8.98465 35.1573 9.51725 34.5002 9.51725C33.8432 9.51725 33.3105 8.98465 33.3105 8.32759C33.3105 7.67057 33.8432 7.13794 34.5002 7.13794Z" fill="#4C4DDC"/>
<path d="M36.8791 7.13794C37.5362 7.13794 38.0688 7.67057 38.0688 8.32759C38.0688 8.98465 37.5362 9.51725 36.8791 9.51725C36.2221 9.51725 35.6895 8.98465 35.6895 8.32759C35.6895 7.67057 36.2221 7.13794 36.8791 7.13794Z" fill="#4C4DDC"/>
<path d="M41.6379 7.13794C42.295 7.13794 42.8276 7.67057 42.8276 8.32759C42.8276 8.98465 42.295 9.51725 41.6379 9.51725C40.9809 9.51725 40.4482 8.98465 40.4482 8.32759C40.4482 7.67057 40.9809 7.13794 41.6379 7.13794Z" fill="#4C4DDC"/>
<path d="M46.3967 7.13794C47.0537 7.13794 47.5863 7.67057 47.5863 8.32759C47.5863 8.98465 47.0537 9.51725 46.3967 9.51725C45.7397 9.51725 45.207 8.98465 45.207 8.32759C45.207 7.67057 45.7397 7.13794 46.3967 7.13794Z" fill="#4C4DDC"/>
<path d="M48.7761 7.13794C49.4331 7.13794 49.9657 7.67057 49.9657 8.32759C49.9657 8.98465 49.4331 9.51725 48.7761 9.51725C48.1191 9.51725 47.5864 8.98465 47.5864 8.32759C47.5864 7.67057 48.1191 7.13794 48.7761 7.13794Z" fill="#4C4DDC"/>
<path d="M20.2243 9.51733C20.8814 9.51733 21.414 10.05 21.414 10.707C21.414 11.364 20.8814 11.8966 20.2243 11.8966C19.5673 11.8966 19.0347 11.364 19.0347 10.707C19.0347 10.05 19.5673 9.51733 20.2243 9.51733Z" fill="#4C4DDC"/>
<path d="M22.6032 9.51733C23.2603 9.51733 23.7929 10.05 23.7929 10.707C23.7929 11.364 23.2603 11.8966 22.6032 11.8966C21.9462 11.8966 21.4136 11.364 21.4136 10.707C21.4136 10.05 21.9462 9.51733 22.6032 9.51733Z" fill="#4C4DDC"/>
<path d="M24.9826 9.51733C25.6397 9.51733 26.1723 10.05 26.1723 10.707C26.1723 11.364 25.6397 11.8966 24.9826 11.8966C24.3256 11.8966 23.793 11.364 23.793 10.707C23.793 10.05 24.3256 9.51733 24.9826 9.51733Z" fill="#4C4DDC"/>
<path d="M29.7414 9.51733C30.3985 9.51733 30.9311 10.05 30.9311 10.707C30.9311 11.364 30.3985 11.8966 29.7414 11.8966C29.0844 11.8966 28.5518 11.364 28.5518 10.707C28.5518 10.05 29.0844 9.51733 29.7414 9.51733Z" fill="#4C4DDC"/>
<path d="M32.1208 9.51733C32.7779 9.51733 33.3105 10.05 33.3105 10.707C33.3105 11.364 32.7779 11.8966 32.1208 11.8966C31.4638 11.8966 30.9312 11.364 30.9312 10.707C30.9312 10.05 31.4638 9.51733 32.1208 9.51733Z" fill="#4C4DDC"/>
<path d="M36.8791 9.51733C37.5362 9.51733 38.0688 10.05 38.0688 10.707C38.0688 11.364 37.5362 11.8966 36.8791 11.8966C36.2221 11.8966 35.6895 11.364 35.6895 10.707C35.6895 10.05 36.2221 9.51733 36.8791 9.51733Z" fill="#4C4DDC"/>
<path d="M41.6379 9.51733C42.295 9.51733 42.8276 10.05 42.8276 10.707C42.8276 11.364 42.295 11.8966 41.6379 11.8966C40.9809 11.8966 40.4482 11.364 40.4482 10.707C40.4482 10.05 40.9809 9.51733 41.6379 9.51733Z" fill="#4C4DDC"/>
<path d="M44.0173 9.51733C44.6743 9.51733 45.2069 10.05 45.2069 10.707C45.2069 11.364 44.6743 11.8966 44.0173 11.8966C43.3603 11.8966 42.8276 11.364 42.8276 10.707C42.8276 10.05 43.3603 9.51733 44.0173 9.51733Z" fill="#4C4DDC"/>
<path d="M46.3967 9.51733C47.0537 9.51733 47.5863 10.05 47.5863 10.707C47.5863 11.364 47.0537 11.8966 46.3967 11.8966C45.7397 11.8966 45.207 11.364 45.207 10.707C45.207 10.05 45.7397 9.51733 46.3967 9.51733Z" fill="#4C4DDC"/>
<path d="M22.6032 11.8965C23.2603 11.8965 23.7929 12.4291 23.7929 13.0861C23.7929 13.7432 23.2603 14.2758 22.6032 14.2758C21.9462 14.2758 21.4136 13.7432 21.4136 13.0861C21.4136 12.4291 21.9462 11.8965 22.6032 11.8965Z" fill="#4C4DDC"/>
<path d="M32.1208 11.8965C32.7779 11.8965 33.3105 12.4291 33.3105 13.0861C33.3105 13.7432 32.7779 14.2758 32.1208 14.2758C31.4638 14.2758 30.9312 13.7432 30.9312 13.0861C30.9312 12.4291 31.4638 11.8965 32.1208 11.8965Z" fill="#4C4DDC"/>
<path d="M34.5002 11.8965C35.1573 11.8965 35.6899 12.4291 35.6899 13.0861C35.6899 13.7432 35.1573 14.2758 34.5002 14.2758C33.8432 14.2758 33.3105 13.7432 33.3105 13.0861C33.3105 12.4291 33.8432 11.8965 34.5002 11.8965Z" fill="#4C4DDC"/>
<path d="M41.6379 11.8965C42.295 11.8965 42.8276 12.4291 42.8276 13.0861C42.8276 13.7432 42.295 14.2758 41.6379 14.2758C40.9809 14.2758 40.4482 13.7432 40.4482 13.0861C40.4482 12.4291 40.9809 11.8965 41.6379 11.8965Z" fill="#4C4DDC"/>
<path d="M48.7761 11.8965C49.4331 11.8965 49.9657 12.4291 49.9657 13.0861C49.9657 13.7432 49.4331 14.2758 48.7761 14.2758C48.1191 14.2758 47.5864 13.7432 47.5864 13.0861C47.5864 12.4291 48.1191 11.8965 48.7761 11.8965Z" fill="#4C4DDC"/>
<path d="M20.2243 14.2759C20.8814 14.2759 21.414 14.8085 21.414 15.4655C21.414 16.1226 20.8814 16.6552 20.2243 16.6552C19.5673 16.6552 19.0347 16.1226 19.0347 15.4655C19.0347 14.8085 19.5673 14.2759 20.2243 14.2759Z" fill="#4C4DDC"/>
<path d="M24.9826 14.2759C25.6397 14.2759 26.1723 14.8085 26.1723 15.4655C26.1723 16.1226 25.6397 16.6552 24.9826 16.6552C24.3256 16.6552 23.793 16.1226 23.793 15.4655C23.793 14.8085 24.3256 14.2759 24.9826 14.2759Z" fill="#4C4DDC"/>
<path d="M29.7414 14.2759C30.3985 14.2759 30.9311 14.8085 30.9311 15.4655C30.9311 16.1226 30.3985 16.6552 29.7414 16.6552C29.0844 16.6552 28.5518 16.1226 28.5518 15.4655C28.5518 14.8085 29.0844 14.2759 29.7414 14.2759Z" fill="#4C4DDC"/>
<path d="M34.5002 14.2759C35.1573 14.2759 35.6899 14.8085 35.6899 15.4655C35.6899 16.1226 35.1573 16.6552 34.5002 16.6552C33.8432 16.6552 33.3105 16.1226 33.3105 15.4655C33.3105 14.8085 33.8432 14.2759 34.5002 14.2759Z" fill="#4C4DDC"/>
<path d="M39.2585 14.2759C39.9156 14.2759 40.4482 14.8085 40.4482 15.4655C40.4482 16.1226 39.9156 16.6552 39.2585 16.6552C38.6015 16.6552 38.0688 16.1226 38.0688 15.4655C38.0688 14.8085 38.6015 14.2759 39.2585 14.2759Z" fill="#4C4DDC"/>
<path d="M44.0173 14.2759C44.6743 14.2759 45.2069 14.8085 45.2069 15.4655C45.2069 16.1226 44.6743 16.6552 44.0173 16.6552C43.3603 16.6552 42.8276 16.1226 42.8276 15.4655C42.8276 14.8085 43.3603 14.2759 44.0173 14.2759Z" fill="#4C4DDC"/>
<path d="M48.7761 14.2759C49.4331 14.2759 49.9657 14.8085 49.9657 15.4655C49.9657 16.1226 49.4331 16.6552 48.7761 16.6552C48.1191 16.6552 47.5864 16.1226 47.5864 15.4655C47.5864 14.8085 48.1191 14.2759 48.7761 14.2759Z" fill="#4C4DDC"/>
<path d="M22.6032 16.6553C23.2603 16.6553 23.7929 17.1879 23.7929 17.8449C23.7929 18.502 23.2603 19.0346 22.6032 19.0346C21.9462 19.0346 21.4136 18.502 21.4136 17.8449C21.4136 17.1879 21.9462 16.6553 22.6032 16.6553Z" fill="#4C4DDC"/>
<path d="M29.7414 16.6553C30.3985 16.6553 30.9311 17.1879 30.9311 17.8449C30.9311 18.502 30.3985 19.0346 29.7414 19.0346C29.0844 19.0346 28.5518 18.502 28.5518 17.8449C28.5518 17.1879 29.0844 16.6553 29.7414 16.6553Z" fill="#4C4DDC"/>
<path d="M34.5002 16.6553C35.1573 16.6553 35.6899 17.1879 35.6899 17.8449C35.6899 18.502 35.1573 19.0346 34.5002 19.0346C33.8432 19.0346 33.3105 18.502 33.3105 17.8449C33.3105 17.1879 33.8432 16.6553 34.5002 16.6553Z" fill="#4C4DDC"/>
<path d="M1.18966 19.0344C1.84671 19.0344 2.37931 19.5671 2.37931 20.2241C2.37931 20.8811 1.84671 21.4137 1.18966 21.4137C0.532632 21.4137 0 20.8811 0 20.2241C0 19.5671 0.532632 19.0344 1.18966 19.0344Z" fill="#4C4DDC"/>
<path d="M8.32735 19.0344C8.98441 19.0344 9.51701 19.5671 9.51701 20.2241C9.51701 20.8811 8.98441 21.4137 8.32735 21.4137C7.67033 21.4137 7.1377 20.8811 7.1377 20.2241C7.1377 19.5671 7.67033 19.0344 8.32735 19.0344Z" fill="#4C4DDC"/>
<path d="M10.7067 19.0344C11.3638 19.0344 11.8964 19.5671 11.8964 20.2241C11.8964 20.8811 11.3638 21.4137 10.7067 21.4137C10.0497 21.4137 9.51709 20.8811 9.51709 20.2241C9.51709 19.5671 10.0497 19.0344 10.7067 19.0344Z" fill="#4C4DDC"/>
<path d="M13.0861 19.0344C13.7432 19.0344 14.2758 19.5671 14.2758 20.2241C14.2758 20.8811 13.7432 21.4137 13.0861 21.4137C12.4291 21.4137 11.8965 20.8811 11.8965 20.2241C11.8965 19.5671 12.4291 19.0344 13.0861 19.0344Z" fill="#4C4DDC"/>
<path d="M15.4655 19.0344C16.1226 19.0344 16.6552 19.5671 16.6552 20.2241C16.6552 20.8811 16.1226 21.4137 15.4655 21.4137C14.8085 21.4137 14.2759 20.8811 14.2759 20.2241C14.2759 19.5671 14.8085 19.0344 15.4655 19.0344Z" fill="#4C4DDC"/>
<path d="M17.8449 19.0344C18.502 19.0344 19.0346 19.5671 19.0346 20.2241C19.0346 20.8811 18.502 21.4137 17.8449 21.4137C17.1879 21.4137 16.6553 20.8811 16.6553 20.2241C16.6553 19.5671 17.1879 19.0344 17.8449 19.0344Z" fill="#4C4DDC"/>
<path d="M20.2243 19.0344C20.8814 19.0344 21.414 19.5671 21.414 20.2241C21.414 20.8811 20.8814 21.4137 20.2243 21.4137C19.5673 21.4137 19.0347 20.8811 19.0347 20.2241C19.0347 19.5671 19.5673 19.0344 20.2243 19.0344Z" fill="#4C4DDC"/>
<path d="M22.6032 19.0344C23.2603 19.0344 23.7929 19.5671 23.7929 20.2241C23.7929 20.8811 23.2603 21.4137 22.6032 21.4137C21.9462 21.4137 21.4136 20.8811 21.4136 20.2241C21.4136 19.5671 21.9462 19.0344 22.6032 19.0344Z" fill="#4C4DDC"/>
<path d="M29.7414 19.0344C30.3985 19.0344 30.9311 19.5671 30.9311 20.2241C30.9311 20.8811 30.3985 21.4137 29.7414 21.4137C29.0844 21.4137 28.5518 20.8811 28.5518 20.2241C28.5518 19.5671 29.0844 19.0344 29.7414 19.0344Z" fill="#4C4DDC"/>
<path d="M32.1208 19.0344C32.7779 19.0344 33.3105 19.5671 33.3105 20.2241C33.3105 20.8811 32.7779 21.4137 32.1208 21.4137C31.4638 21.4137 30.9312 20.8811 30.9312 20.2241C30.9312 19.5671 31.4638 19.0344 32.1208 19.0344Z" fill="#4C4DDC"/>
<path d="M34.5002 19.0344C35.1573 19.0344 35.6899 19.5671 35.6899 20.2241C35.6899 20.8811 35.1573 21.4137 34.5002 21.4137C33.8432 21.4137 33.3105 20.8811 33.3105 20.2241C33.3105 19.5671 33.8432 19.0344 34.5002 19.0344Z" fill="#4C4DDC"/>
<path d="M36.8791 19.0344C37.5362 19.0344 38.0688 19.5671 38.0688 20.2241C38.0688 20.8811 37.5362 21.4137 36.8791 21.4137C36.2221 21.4137 35.6895 20.8811 35.6895 20.2241C35.6895 19.5671 36.2221 19.0344 36.8791 19.0344Z" fill="#4C4DDC"/>
<path d="M39.2585 19.0344C39.9156 19.0344 40.4482 19.5671 40.4482 20.2241C40.4482 20.8811 39.9156 21.4137 39.2585 21.4137C38.6015 21.4137 38.0688 20.8811 38.0688 20.2241C38.0688 19.5671 38.6015 19.0344 39.2585 19.0344Z" fill="#4C4DDC"/>
<path d="M41.6379 19.0344C42.295 19.0344 42.8276 19.5671 42.8276 20.2241C42.8276 20.8811 42.295 21.4137 41.6379 21.4137C40.9809 21.4137 40.4482 20.8811 40.4482 20.2241C40.4482 19.5671 40.9809 19.0344 41.6379 19.0344Z" fill="#4C4DDC"/>
<path d="M51.155 19.0344C51.812 19.0344 52.3446 19.5671 52.3446 20.2241C52.3446 20.8811 51.812 21.4137 51.155 21.4137C50.498 21.4137 49.9653 20.8811 49.9653 20.2241C49.9653 19.5671 50.498 19.0344 51.155 19.0344Z" fill="#4C4DDC"/>
<path d="M58.2932 19.0344C58.9502 19.0344 59.4828 19.5671 59.4828 20.2241C59.4828 20.8811 58.9502 21.4137 58.2932 21.4137C57.6361 21.4137 57.1035 20.8811 57.1035 20.2241C57.1035 19.5671 57.6361 19.0344 58.2932 19.0344Z" fill="#4C4DDC"/>
<path d="M63.052 19.0344C63.709 19.0344 64.2416 19.5671 64.2416 20.2241C64.2416 20.8811 63.709 21.4137 63.052 21.4137C62.3949 21.4137 61.8623 20.8811 61.8623 20.2241C61.8623 19.5671 62.3949 19.0344 63.052 19.0344Z" fill="#4C4DDC"/>
<path d="M65.4309 19.0344C66.0879 19.0344 66.6205 19.5671 66.6205 20.2241C66.6205 20.8811 66.0879 21.4137 65.4309 21.4137C64.7738 21.4137 64.2412 20.8811 64.2412 20.2241C64.2412 19.5671 64.7738 19.0344 65.4309 19.0344Z" fill="#4C4DDC"/>
<path d="M67.8103 19.0344C68.4673 19.0344 68.9999 19.5671 68.9999 20.2241C68.9999 20.8811 68.4673 21.4137 67.8103 21.4137C67.1532 21.4137 66.6206 20.8811 66.6206 20.2241C66.6206 19.5671 67.1532 19.0344 67.8103 19.0344Z" fill="#4C4DDC"/>
<path d="M1.18966 21.4138C1.84671 21.4138 2.37931 21.9465 2.37931 22.6035C2.37931 23.2605 1.84671 23.7931 1.18966 23.7931C0.532632 23.7931 0 23.2605 0 22.6035C0 21.9465 0.532632 21.4138 1.18966 21.4138Z" fill="#4C4DDC"/>
<path d="M5.94844 21.4138C6.6055 21.4138 7.1381 21.9465 7.1381 22.6035C7.1381 23.2605 6.6055 23.7931 5.94844 23.7931C5.29142 23.7931 4.75879 23.2605 4.75879 22.6035C4.75879 21.9465 5.29142 21.4138 5.94844 21.4138Z" fill="#4C4DDC"/>
<path d="M20.2243 21.4138C20.8814 21.4138 21.414 21.9465 21.414 22.6035C21.414 23.2605 20.8814 23.7931 20.2243 23.7931C19.5673 23.7931 19.0347 23.2605 19.0347 22.6035C19.0347 21.9465 19.5673 21.4138 20.2243 21.4138Z" fill="#4C4DDC"/>
<path d="M29.7414 21.4138C30.3985 21.4138 30.9311 21.9465 30.9311 22.6035C30.9311 23.2605 30.3985 23.7931 29.7414 23.7931C29.0844 23.7931 28.5518 23.2605 28.5518 22.6035C28.5518 21.9465 29.0844 21.4138 29.7414 21.4138Z" fill="#4C4DDC"/>
<path d="M34.5002 21.4138C35.1573 21.4138 35.6899 21.9465 35.6899 22.6035C35.6899 23.2605 35.1573 23.7931 34.5002 23.7931C33.8432 23.7931 33.3105 23.2605 33.3105 22.6035C33.3105 21.9465 33.8432 21.4138 34.5002 21.4138Z" fill="#4C4DDC"/>
<path d="M41.6379 21.4138C42.295 21.4138 42.8276 21.9465 42.8276 22.6035C42.8276 23.2605 42.295 23.7931 41.6379 23.7931C40.9809 23.7931 40.4482 23.2605 40.4482 22.6035C40.4482 21.9465 40.9809 21.4138 41.6379 21.4138Z" fill="#4C4DDC"/>
<path d="M46.3967 21.4138C47.0537 21.4138 47.5863 21.9465 47.5863 22.6035C47.5863 23.2605 47.0537 23.7931 46.3967 23.7931C45.7397 23.7931 45.207 23.2605 45.207 22.6035C45.207 21.9465 45.7397 21.4138 46.3967 21.4138Z" fill="#4C4DDC"/>
<path d="M51.155 21.4138C51.812 21.4138 52.3446 21.9465 52.3446 22.6035C52.3446 23.2605 51.812 23.7931 51.155 23.7931C50.498 23.7931 49.9653 23.2605 49.9653 22.6035C49.9653 21.9465 50.498 21.4138 51.155 21.4138Z" fill="#4C4DDC"/>
<path d="M55.9138 21.4138C56.5708 21.4138 57.1034 21.9465 57.1034 22.6035C57.1034 23.2605 56.5708 23.7931 55.9138 23.7931C55.2568 23.7931 54.7241 23.2605 54.7241 22.6035C54.7241 21.9465 55.2568 21.4138 55.9138 21.4138Z" fill="#4C4DDC"/>
<path d="M58.2932 21.4138C58.9502 21.4138 59.4828 21.9465 59.4828 22.6035C59.4828 23.2605 58.9502 23.7931 58.2932 23.7931C57.6361 23.7931 57.1035 23.2605 57.1035 22.6035C57.1035 21.9465 57.6361 21.4138 58.2932 21.4138Z" fill="#4C4DDC"/>
<path d="M63.052 21.4138C63.709 21.4138 64.2416 21.9465 64.2416 22.6035C64.2416 23.2605 63.709 23.7931 63.052 23.7931C62.3949 23.7931 61.8623 23.2605 61.8623 22.6035C61.8623 21.9465 62.3949 21.4138 63.052 21.4138Z" fill="#4C4DDC"/>
<path d="M65.4309 21.4138C66.0879 21.4138 66.6205 21.9465 66.6205 22.6035C66.6205 23.2605 66.0879 23.7931 65.4309 23.7931C64.7738 23.7931 64.2412 23.2605 64.2412 22.6035C64.2412 21.9465 64.7738 21.4138 65.4309 21.4138Z" fill="#4C4DDC"/>
<path d="M3.56905 23.7932C4.22611 23.7932 4.7587 24.3258 4.7587 24.9829C4.7587 25.6399 4.22611 26.1725 3.56905 26.1725C2.91203 26.1725 2.37939 25.6399 2.37939 24.9829C2.37939 24.3258 2.91203 23.7932 3.56905 23.7932Z" fill="#4C4DDC"/>
<path d="M5.94844 23.7932C6.6055 23.7932 7.1381 24.3258 7.1381 24.9829C7.1381 25.6399 6.6055 26.1725 5.94844 26.1725C5.29142 26.1725 4.75879 25.6399 4.75879 24.9829C4.75879 24.3258 5.29142 23.7932 5.94844 23.7932Z" fill="#4C4DDC"/>
<path d="M10.7067 23.7932C11.3638 23.7932 11.8964 24.3258 11.8964 24.9829C11.8964 25.6399 11.3638 26.1725 10.7067 26.1725C10.0497 26.1725 9.51709 25.6399 9.51709 24.9829C9.51709 24.3258 10.0497 23.7932 10.7067 23.7932Z" fill="#4C4DDC"/>
<path d="M13.0861 23.7932C13.7432 23.7932 14.2758 24.3258 14.2758 24.9829C14.2758 25.6399 13.7432 26.1725 13.0861 26.1725C12.4291 26.1725 11.8965 25.6399 11.8965 24.9829C11.8965 24.3258 12.4291 23.7932 13.0861 23.7932Z" fill="#4C4DDC"/>
<path d="M15.4655 23.7932C16.1226 23.7932 16.6552 24.3258 16.6552 24.9829C16.6552 25.6399 16.1226 26.1725 15.4655 26.1725C14.8085 26.1725 14.2759 25.6399 14.2759 24.9829C14.2759 24.3258 14.8085 23.7932 15.4655 23.7932Z" fill="#4C4DDC"/>
<path d="M22.6032 23.7932C23.2603 23.7932 23.7929 24.3258 23.7929 24.9829C23.7929 25.6399 23.2603 26.1725 22.6032 26.1725C21.9462 26.1725 21.4136 25.6399 21.4136 24.9829C21.4136 24.3258 21.9462 23.7932 22.6032 23.7932Z" fill="#4C4DDC"/>
<path d="M24.9826 23.7932C25.6397 23.7932 26.1723 24.3258 26.1723 24.9829C26.1723 25.6399 25.6397 26.1725 24.9826 26.1725C24.3256 26.1725 23.793 25.6399 23.793 24.9829C23.793 24.3258 24.3256 23.7932 24.9826 23.7932Z" fill="#4C4DDC"/>
<path d="M34.5002 23.7932C35.1573 23.7932 35.6899 24.3258 35.6899 24.9829C35.6899 25.6399 35.1573 26.1725 34.5002 26.1725C33.8432 26.1725 33.3105 25.6399 33.3105 24.9829C33.3105 24.3258 33.8432 23.7932 34.5002 23.7932Z" fill="#4C4DDC"/>
<path d="M41.6379 23.7932C42.295 23.7932 42.8276 24.3258 42.8276 24.9829C42.8276 25.6399 42.295 26.1725 41.6379 26.1725C40.9809 26.1725 40.4482 25.6399 40.4482 24.9829C40.4482 24.3258 40.9809 23.7932 41.6379 23.7932Z" fill="#4C4DDC"/>
<path d="M44.0173 23.7932C44.6743 23.7932 45.2069 24.3258 45.2069 24.9829C45.2069 25.6399 44.6743 26.1725 44.0173 26.1725C43.3603 26.1725 42.8276 25.6399 42.8276 24.9829C42.8276 24.3258 43.3603 23.7932 44.0173 23.7932Z" fill="#4C4DDC"/>
<path d="M51.155 23.7932C51.812 23.7932 52.3446 24.3258 52.3446 24.9829C52.3446 25.6399 51.812 26.1725 51.155 26.1725C50.498 26.1725 49.9653 25.6399 49.9653 24.9829C49.9653 24.3258 50.498 23.7932 51.155 23.7932Z" fill="#4C4DDC"/>
<path d="M55.9138 23.7932C56.5708 23.7932 57.1034 24.3258 57.1034 24.9829C57.1034 25.6399 56.5708 26.1725 55.9138 26.1725C55.2568 26.1725 54.7241 25.6399 54.7241 24.9829C54.7241 24.3258 55.2568 23.7932 55.9138 23.7932Z" fill="#4C4DDC"/>
<path d="M63.052 23.7932C63.709 23.7932 64.2416 24.3258 64.2416 24.9829C64.2416 25.6399 63.709 26.1725 63.052 26.1725C62.3949 26.1725 61.8623 25.6399 61.8623 24.9829C61.8623 24.3258 62.3949 23.7932 63.052 23.7932Z" fill="#4C4DDC"/>
<path d="M8.32735 26.1724C8.98441 26.1724 9.51701 26.705 9.51701 27.362C9.51701 28.0191 8.98441 28.5517 8.32735 28.5517C7.67033 28.5517 7.1377 28.0191 7.1377 27.362C7.1377 26.705 7.67033 26.1724 8.32735 26.1724Z" fill="#4C4DDC"/>
<path d="M10.7067 26.1724C11.3638 26.1724 11.8964 26.705 11.8964 27.362C11.8964 28.0191 11.3638 28.5517 10.7067 28.5517C10.0497 28.5517 9.51709 28.0191 9.51709 27.362C9.51709 26.705 10.0497 26.1724 10.7067 26.1724Z" fill="#4C4DDC"/>
<path d="M20.2243 26.1724C20.8814 26.1724 21.414 26.705 21.414 27.362C21.414 28.0191 20.8814 28.5517 20.2243 28.5517C19.5673 28.5517 19.0347 28.0191 19.0347 27.362C19.0347 26.705 19.5673 26.1724 20.2243 26.1724Z" fill="#4C4DDC"/>
<path d="M22.6032 26.1724C23.2603 26.1724 23.7929 26.705 23.7929 27.362C23.7929 28.0191 23.2603 28.5517 22.6032 28.5517C21.9462 28.5517 21.4136 28.0191 21.4136 27.362C21.4136 26.705 21.9462 26.1724 22.6032 26.1724Z" fill="#4C4DDC"/>
<path d="M24.9826 26.1724C25.6397 26.1724 26.1723 26.705 26.1723 27.362C26.1723 28.0191 25.6397 28.5517 24.9826 28.5517C24.3256 28.5517 23.793 28.0191 23.793 27.362C23.793 26.705 24.3256 26.1724 24.9826 26.1724Z" fill="#4C4DDC"/>
<path d="M34.5002 26.1724C35.1573 26.1724 35.6899 26.705 35.6899 27.362C35.6899 28.0191 35.1573 28.5517 34.5002 28.5517C33.8432 28.5517 33.3105 28.0191 33.3105 27.362C33.3105 26.705 33.8432 26.1724 34.5002 26.1724Z" fill="#4C4DDC"/>
<path d="M36.8791 26.1724C37.5362 26.1724 38.0688 26.705 38.0688 27.362C38.0688 28.0191 37.5362 28.5517 36.8791 28.5517C36.2221 28.5517 35.6895 28.0191 35.6895 27.362C35.6895 26.705 36.2221 26.1724 36.8791 26.1724Z" fill="#4C4DDC"/>
<path d="M41.6379 26.1724C42.295 26.1724 42.8276 26.705 42.8276 27.362C42.8276 28.0191 42.295 28.5517 41.6379 28.5517C40.9809 28.5517 40.4482 28.0191 40.4482 27.362C40.4482 26.705 40.9809 26.1724 41.6379 26.1724Z" fill="#4C4DDC"/>
<path d="M48.7761 26.1724C49.4331 26.1724 49.9657 26.705 49.9657 27.362C49.9657 28.0191 49.4331 28.5517 48.7761 28.5517C48.1191 28.5517 47.5864 28.0191 47.5864 27.362C47.5864 26.705 48.1191 26.1724 48.7761 26.1724Z" fill="#4C4DDC"/>
<path d="M51.155 26.1724C51.812 26.1724 52.3446 26.705 52.3446 27.362C52.3446 28.0191 51.812 28.5517 51.155 28.5517C50.498 28.5517 49.9653 28.0191 49.9653 27.362C49.9653 26.705 50.498 26.1724 51.155 26.1724Z" fill="#4C4DDC"/>
<path d="M53.5344 26.1724C54.1914 26.1724 54.724 26.705 54.724 27.362C54.724 28.0191 54.1914 28.5517 53.5344 28.5517C52.8774 28.5517 52.3447 28.0191 52.3447 27.362C52.3447 26.705 52.8774 26.1724 53.5344 26.1724Z" fill="#4C4DDC"/>
<path d="M60.6726 26.1724C61.3296 26.1724 61.8622 26.705 61.8622 27.362C61.8622 28.0191 61.3296 28.5517 60.6726 28.5517C60.0155 28.5517 59.4829 28.0191 59.4829 27.362C59.4829 26.705 60.0155 26.1724 60.6726 26.1724Z" fill="#4C4DDC"/>
<path d="M67.8103 26.1724C68.4673 26.1724 68.9999 26.705 68.9999 27.362C68.9999 28.0191 68.4673 28.5517 67.8103 28.5517C67.1532 28.5517 66.6206 28.0191 66.6206 27.362C66.6206 26.705 67.1532 26.1724 67.8103 26.1724Z" fill="#4C4DDC"/>
<path d="M1.18966 28.5518C1.84671 28.5518 2.37931 29.0844 2.37931 29.7414C2.37931 30.3985 1.84671 30.9311 1.18966 30.9311C0.532632 30.9311 0 30.3985 0 29.7414C0 29.0844 0.532632 28.5518 1.18966 28.5518Z" fill="#4C4DDC"/>
<path d="M3.56905 28.5518C4.22611 28.5518 4.7587 29.0844 4.7587 29.7414C4.7587 30.3985 4.22611 30.9311 3.56905 30.9311C2.91203 30.9311 2.37939 30.3985 2.37939 29.7414C2.37939 29.0844 2.91203 28.5518 3.56905 28.5518Z" fill="#4C4DDC"/>
<path d="M5.94844 28.5518C6.6055 28.5518 7.1381 29.0844 7.1381 29.7414C7.1381 30.3985 6.6055 30.9311 5.94844 30.9311C5.29142 30.9311 4.75879 30.3985 4.75879 29.7414C4.75879 29.0844 5.29142 28.5518 5.94844 28.5518Z" fill="#4C4DDC"/>
<path d="M8.32735 28.5518C8.98441 28.5518 9.51701 29.0844 9.51701 29.7414C9.51701 30.3985 8.98441 30.9311 8.32735 30.9311C7.67033 30.9311 7.1377 30.3985 7.1377 29.7414C7.1377 29.0844 7.67033 28.5518 8.32735 28.5518Z" fill="#4C4DDC"/>
<path d="M15.4655 28.5518C16.1226 28.5518 16.6552 29.0844 16.6552 29.7414C16.6552 30.3985 16.1226 30.9311 15.4655 30.9311C14.8085 30.9311 14.2759 30.3985 14.2759 29.7414C14.2759 29.0844 14.8085 28.5518 15.4655 28.5518Z" fill="#4C4DDC"/>
<path d="M24.9826 28.5518C25.6397 28.5518 26.1723 29.0844 26.1723 29.7414C26.1723 30.3985 25.6397 30.9311 24.9826 30.9311C24.3256 30.9311 23.793 30.3985 23.793 29.7414C23.793 29.0844 24.3256 28.5518 24.9826 28.5518Z" fill="#4C4DDC"/>
<path d="M29.7414 28.5518C30.3985 28.5518 30.9311 29.0844 30.9311 29.7414C30.9311 30.3985 30.3985 30.9311 29.7414 30.9311C29.0844 30.9311 28.5518 30.3985 28.5518 29.7414C28.5518 29.0844 29.0844 28.5518 29.7414 28.5518Z" fill="#4C4DDC"/>
<path d="M32.1208 28.5518C32.7779 28.5518 33.3105 29.0844 33.3105 29.7414C33.3105 30.3985 32.7779 30.9311 32.1208 30.9311C31.4638 30.9311 30.9312 30.3985 30.9312 29.7414C30.9312 29.0844 31.4638 28.5518 32.1208 28.5518Z" fill="#4C4DDC"/>
<path d="M34.5002 28.5518C35.1573 28.5518 35.6899 29.0844 35.6899 29.7414C35.6899 30.3985 35.1573 30.9311 34.5002 30.9311C33.8432 30.9311 33.3105 30.3985 33.3105 29.7414C33.3105 29.0844 33.8432 28.5518 34.5002 28.5518Z" fill="#4C4DDC"/>
<path d="M44.0173 28.5518C44.6743 28.5518 45.2069 29.0844 45.2069 29.7414C45.2069 30.3985 44.6743 30.9311 44.0173 30.9311C43.3603 30.9311 42.8276 30.3985 42.8276 29.7414C42.8276 29.0844 43.3603 28.5518 44.0173 28.5518Z" fill="#4C4DDC"/>
<path d="M48.7761 28.5518C49.4331 28.5518 49.9657 29.0844 49.9657 29.7414C49.9657 30.3985 49.4331 30.9311 48.7761 30.9311C48.1191 30.9311 47.5864 30.3985 47.5864 29.7414C47.5864 29.0844 48.1191 28.5518 48.7761 28.5518Z" fill="#4C4DDC"/>
<path d="M53.5344 28.5518C54.1914 28.5518 54.724 29.0844 54.724 29.7414C54.724 30.3985 54.1914 30.9311 53.5344 30.9311C52.8774 30.9311 52.3447 30.3985 52.3447 29.7414C52.3447 29.0844 52.8774 28.5518 53.5344 28.5518Z" fill="#4C4DDC"/>
<path d="M55.9138 28.5518C56.5708 28.5518 57.1034 29.0844 57.1034 29.7414C57.1034 30.3985 56.5708 30.9311 55.9138 30.9311C55.2568 30.9311 54.7241 30.3985 54.7241 29.7414C54.7241 29.0844 55.2568 28.5518 55.9138 28.5518Z" fill="#4C4DDC"/>
<path d="M67.8103 28.5518C68.4673 28.5518 68.9999 29.0844 68.9999 29.7414C68.9999 30.3985 68.4673 30.9311 67.8103 30.9311C67.1532 30.9311 66.6206 30.3985 66.6206 29.7414C66.6206 29.0844 67.1532 28.5518 67.8103 28.5518Z" fill="#4C4DDC"/>
<path d="M5.94844 30.9312C6.6055 30.9312 7.1381 31.4638 7.1381 32.1208C7.1381 32.7779 6.6055 33.3105 5.94844 33.3105C5.29142 33.3105 4.75879 32.7779 4.75879 32.1208C4.75879 31.4638 5.29142 30.9312 5.94844 30.9312Z" fill="#4C4DDC"/>
<path d="M27.362 30.9312C28.0191 30.9312 28.5517 31.4638 28.5517 32.1208C28.5517 32.7779 28.0191 33.3105 27.362 33.3105C26.705 33.3105 26.1724 32.7779 26.1724 32.1208C26.1724 31.4638 26.705 30.9312 27.362 30.9312Z" fill="#4C4DDC"/>
<path d="M29.7414 30.9312C30.3985 30.9312 30.9311 31.4638 30.9311 32.1208C30.9311 32.7779 30.3985 33.3105 29.7414 33.3105C29.0844 33.3105 28.5518 32.7779 28.5518 32.1208C28.5518 31.4638 29.0844 30.9312 29.7414 30.9312Z" fill="#4C4DDC"/>
<path d="M41.6379 30.9312C42.295 30.9312 42.8276 31.4638 42.8276 32.1208C42.8276 32.7779 42.295 33.3105 41.6379 33.3105C40.9809 33.3105 40.4482 32.7779 40.4482 32.1208C40.4482 31.4638 40.9809 30.9312 41.6379 30.9312Z" fill="#4C4DDC"/>
<path d="M44.0173 30.9312C44.6743 30.9312 45.2069 31.4638 45.2069 32.1208C45.2069 32.7779 44.6743 33.3105 44.0173 33.3105C43.3603 33.3105 42.8276 32.7779 42.8276 32.1208C42.8276 31.4638 43.3603 30.9312 44.0173 30.9312Z" fill="#4C4DDC"/>
<path d="M51.155 30.9312C51.812 30.9312 52.3446 31.4638 52.3446 32.1208C52.3446 32.7779 51.812 33.3105 51.155 33.3105C50.498 33.3105 49.9653 32.7779 49.9653 32.1208C49.9653 31.4638 50.498 30.9312 51.155 30.9312Z" fill="#4C4DDC"/>
<path d="M53.5344 30.9312C54.1914 30.9312 54.724 31.4638 54.724 32.1208C54.724 32.7779 54.1914 33.3105 53.5344 33.3105C52.8774 33.3105 52.3447 32.7779 52.3447 32.1208C52.3447 31.4638 52.8774 30.9312 53.5344 30.9312Z" fill="#4C4DDC"/>
<path d="M58.2932 30.9312C58.9502 30.9312 59.4828 31.4638 59.4828 32.1208C59.4828 32.7779 58.9502 33.3105 58.2932 33.3105C57.6361 33.3105 57.1035 32.7779 57.1035 32.1208C57.1035 31.4638 57.6361 30.9312 58.2932 30.9312Z" fill="#4C4DDC"/>
<path d="M60.6726 30.9312C61.3296 30.9312 61.8622 31.4638 61.8622 32.1208C61.8622 32.7779 61.3296 33.3105 60.6726 33.3105C60.0155 33.3105 59.4829 32.7779 59.4829 32.1208C59.4829 31.4638 60.0155 30.9312 60.6726 30.9312Z" fill="#4C4DDC"/>
<path d="M63.052 30.9312C63.709 30.9312 64.2416 31.4638 64.2416 32.1208C64.2416 32.7779 63.709 33.3105 63.052 33.3105C62.3949 33.3105 61.8623 32.7779 61.8623 32.1208C61.8623 31.4638 62.3949 30.9312 63.052 30.9312Z" fill="#4C4DDC"/>
<path d="M65.4309 30.9312C66.0879 30.9312 66.6205 31.4638 66.6205 32.1208C66.6205 32.7779 66.0879 33.3105 65.4309 33.3105C64.7738 33.3105 64.2412 32.7779 64.2412 32.1208C64.2412 31.4638 64.7738 30.9312 65.4309 30.9312Z" fill="#4C4DDC"/>
<path d="M67.8103 30.9312C68.4673 30.9312 68.9999 31.4638 68.9999 32.1208C68.9999 32.7779 68.4673 33.3105 67.8103 33.3105C67.1532 33.3105 66.6206 32.7779 66.6206 32.1208C66.6206 31.4638 67.1532 30.9312 67.8103 30.9312Z" fill="#4C4DDC"/>
<path d="M3.56905 33.3103C4.22611 33.3103 4.7587 33.8429 4.7587 34.5C4.7587 35.157 4.22611 35.6896 3.56905 35.6896C2.91203 35.6896 2.37939 35.157 2.37939 34.5C2.37939 33.8429 2.91203 33.3103 3.56905 33.3103Z" fill="#4C4DDC"/>
<path d="M13.0861 33.3103C13.7432 33.3103 14.2758 33.8429 14.2758 34.5C14.2758 35.157 13.7432 35.6896 13.0861 35.6896C12.4291 35.6896 11.8965 35.157 11.8965 34.5C11.8965 33.8429 12.4291 33.3103 13.0861 33.3103Z" fill="#4C4DDC"/>
<path d="M15.4655 33.3103C16.1226 33.3103 16.6552 33.8429 16.6552 34.5C16.6552 35.157 16.1226 35.6896 15.4655 35.6896C14.8085 35.6896 14.2759 35.157 14.2759 34.5C14.2759 33.8429 14.8085 33.3103 15.4655 33.3103Z" fill="#4C4DDC"/>
<path d="M17.8449 33.3103C18.502 33.3103 19.0346 33.8429 19.0346 34.5C19.0346 35.157 18.502 35.6896 17.8449 35.6896C17.1879 35.6896 16.6553 35.157 16.6553 34.5C16.6553 33.8429 17.1879 33.3103 17.8449 33.3103Z" fill="#4C4DDC"/>
<path d="M20.2243 33.3103C20.8814 33.3103 21.414 33.8429 21.414 34.5C21.414 35.157 20.8814 35.6896 20.2243 35.6896C19.5673 35.6896 19.0347 35.157 19.0347 34.5C19.0347 33.8429 19.5673 33.3103 20.2243 33.3103Z" fill="#4C4DDC"/>
<path d="M24.9826 33.3103C25.6397 33.3103 26.1723 33.8429 26.1723 34.5C26.1723 35.157 25.6397 35.6896 24.9826 35.6896C24.3256 35.6896 23.793 35.157 23.793 34.5C23.793 33.8429 24.3256 33.3103 24.9826 33.3103Z" fill="#4C4DDC"/>
<path d="M34.5002 33.3103C35.1573 33.3103 35.6899 33.8429 35.6899 34.5C35.6899 35.157 35.1573 35.6896 34.5002 35.6896C33.8432 35.6896 33.3105 35.157 33.3105 34.5C33.3105 33.8429 33.8432 33.3103 34.5002 33.3103Z" fill="#4C4DDC"/>
<path d="M36.8791 33.3103C37.5362 33.3103 38.0688 33.8429 38.0688 34.5C38.0688 35.157 37.5362 35.6896 36.8791 35.6896C36.2221 35.6896 35.6895 35.157 35.6895 34.5C35.6895 33.8429 36.2221 33.3103 36.8791 33.3103Z" fill="#4C4DDC"/>
<path d="M41.6379 33.3103C42.295 33.3103 42.8276 33.8429 42.8276 34.5C42.8276 35.157 42.295 35.6896 41.6379 35.6896C40.9809 35.6896 40.4482 35.157 40.4482 34.5C40.4482 33.8429 40.9809 33.3103 41.6379 33.3103Z" fill="#4C4DDC"/>
<path d="M46.3967 33.3103C47.0537 33.3103 47.5863 33.8429 47.5863 34.5C47.5863 35.157 47.0537 35.6896 46.3967 35.6896C45.7397 35.6896 45.207 35.157 45.207 34.5C45.207 33.8429 45.7397 33.3103 46.3967 33.3103Z" fill="#4C4DDC"/>
<path d="M48.7761 33.3103C49.4331 33.3103 49.9657 33.8429 49.9657 34.5C49.9657 35.157 49.4331 35.6896 48.7761 35.6896C48.1191 35.6896 47.5864 35.157 47.5864 34.5C47.5864 33.8429 48.1191 33.3103 48.7761 33.3103Z" fill="#4C4DDC"/>
<path d="M51.155 33.3103C51.812 33.3103 52.3446 33.8429 52.3446 34.5C52.3446 35.157 51.812 35.6896 51.155 35.6896C50.498 35.6896 49.9653 35.157 49.9653 34.5C49.9653 33.8429 50.498 33.3103 51.155 33.3103Z" fill="#4C4DDC"/>
<path d="M53.5344 33.3103C54.1914 33.3103 54.724 33.8429 54.724 34.5C54.724 35.157 54.1914 35.6896 53.5344 35.6896C52.8774 35.6896 52.3447 35.157 52.3447 34.5C52.3447 33.8429 52.8774 33.3103 53.5344 33.3103Z" fill="#4C4DDC"/>
<path d="M55.9138 33.3103C56.5708 33.3103 57.1034 33.8429 57.1034 34.5C57.1034 35.157 56.5708 35.6896 55.9138 35.6896C55.2568 35.6896 54.7241 35.157 54.7241 34.5C54.7241 33.8429 55.2568 33.3103 55.9138 33.3103Z" fill="#4C4DDC"/>
<path d="M63.052 33.3103C63.709 33.3103 64.2416 33.8429 64.2416 34.5C64.2416 35.157 63.709 35.6896 63.052 35.6896C62.3949 35.6896 61.8623 35.157 61.8623 34.5C61.8623 33.8429 62.3949 33.3103 63.052 33.3103Z" fill="#4C4DDC"/>
<path d="M67.8103 33.3103C68.4673 33.3103 68.9999 33.8429 68.9999 34.5C68.9999 35.157 68.4673 35.6896 67.8103 35.6896C67.1532 35.6896 66.6206 35.157 66.6206 34.5C66.6206 33.8429 67.1532 33.3103 67.8103 33.3103Z" fill="#4C4DDC"/>
<path d="M1.18966 35.6897C1.84671 35.6897 2.37931 36.2223 2.37931 36.8794C2.37931 37.5364 1.84671 38.069 1.18966 38.069C0.532632 38.069 0 37.5364 0 36.8794C0 36.2223 0.532632 35.6897 1.18966 35.6897Z" fill="#4C4DDC"/>
<path d="M3.56905 35.6897C4.22611 35.6897 4.7587 36.2223 4.7587 36.8794C4.7587 37.5364 4.22611 38.069 3.56905 38.069C2.91203 38.069 2.37939 37.5364 2.37939 36.8794C2.37939 36.2223 2.91203 35.6897 3.56905 35.6897Z" fill="#4C4DDC"/>
<path d="M10.7067 35.6897C11.3638 35.6897 11.8964 36.2223 11.8964 36.8794C11.8964 37.5364 11.3638 38.069 10.7067 38.069C10.0497 38.069 9.51709 37.5364 9.51709 36.8794C9.51709 36.2223 10.0497 35.6897 10.7067 35.6897Z" fill="#4C4DDC"/>
<path d="M17.8449 35.6897C18.502 35.6897 19.0346 36.2223 19.0346 36.8794C19.0346 37.5364 18.502 38.069 17.8449 38.069C17.1879 38.069 16.6553 37.5364 16.6553 36.8794C16.6553 36.2223 17.1879 35.6897 17.8449 35.6897Z" fill="#4C4DDC"/>
<path d="M22.6032 35.6897C23.2603 35.6897 23.7929 36.2223 23.7929 36.8794C23.7929 37.5364 23.2603 38.069 22.6032 38.069C21.9462 38.069 21.4136 37.5364 21.4136 36.8794C21.4136 36.2223 21.9462 35.6897 22.6032 35.6897Z" fill="#4C4DDC"/>
<path d="M24.9826 35.6897C25.6397 35.6897 26.1723 36.2223 26.1723 36.8794C26.1723 37.5364 25.6397 38.069 24.9826 38.069C24.3256 38.069 23.793 37.5364 23.793 36.8794C23.793 36.2223 24.3256 35.6897 24.9826 35.6897Z" fill="#4C4DDC"/>
<path d="M32.1208 35.6897C32.7779 35.6897 33.3105 36.2223 33.3105 36.8794C33.3105 37.5364 32.7779 38.069 32.1208 38.069C31.4638 38.069 30.9312 37.5364 30.9312 36.8794C30.9312 36.2223 31.4638 35.6897 32.1208 35.6897Z" fill="#4C4DDC"/>
<path d="M34.5002 35.6897C35.1573 35.6897 35.6899 36.2223 35.6899 36.8794C35.6899 37.5364 35.1573 38.069 34.5002 38.069C33.8432 38.069 33.3105 37.5364 33.3105 36.8794C33.3105 36.2223 33.8432 35.6897 34.5002 35.6897Z" fill="#4C4DDC"/>
<path d="M39.2585 35.6897C39.9156 35.6897 40.4482 36.2223 40.4482 36.8794C40.4482 37.5364 39.9156 38.069 39.2585 38.069C38.6015 38.069 38.0688 37.5364 38.0688 36.8794C38.0688 36.2223 38.6015 35.6897 39.2585 35.6897Z" fill="#4C4DDC"/>
<path d="M44.0173 35.6897C44.6743 35.6897 45.2069 36.2223 45.2069 36.8794C45.2069 37.5364 44.6743 38.069 44.0173 38.069C43.3603 38.069 42.8276 37.5364 42.8276 36.8794C42.8276 36.2223 43.3603 35.6897 44.0173 35.6897Z" fill="#4C4DDC"/>
<path d="M55.9138 35.6897C56.5708 35.6897 57.1034 36.2223 57.1034 36.8794C57.1034 37.5364 56.5708 38.069 55.9138 38.069C55.2568 38.069 54.7241 37.5364 54.7241 36.8794C54.7241 36.2223 55.2568 35.6897 55.9138 35.6897Z" fill="#4C4DDC"/>
<path d="M58.2932 35.6897C58.9502 35.6897 59.4828 36.2223 59.4828 36.8794C59.4828 37.5364 58.9502 38.069 58.2932 38.069C57.6361 38.069 57.1035 37.5364 57.1035 36.8794C57.1035 36.2223 57.6361 35.6897 58.2932 35.6897Z" fill="#4C4DDC"/>
<path d="M63.052 35.6897C63.709 35.6897 64.2416 36.2223 64.2416 36.8794C64.2416 37.5364 63.709 38.069 63.052 38.069C62.3949 38.069 61.8623 37.5364 61.8623 36.8794C61.8623 36.2223 62.3949 35.6897 63.052 35.6897Z" fill="#4C4DDC"/>
<path d="M67.8103 35.6897C68.4673 35.6897 68.9999 36.2223 68.9999 36.8794C68.9999 37.5364 68.4673 38.069 67.8103 38.069C67.1532 38.069 66.6206 37.5364 66.6206 36.8794C66.6206 36.2223 67.1532 35.6897 67.8103 35.6897Z" fill="#4C4DDC"/>
<path d="M10.7067 38.0688C11.3638 38.0688 11.8964 38.6015 11.8964 39.2585C11.8964 39.9156 11.3638 40.4482 10.7067 40.4482C10.0497 40.4482 9.51709 39.9156 9.51709 39.2585C9.51709 38.6015 10.0497 38.0688 10.7067 38.0688Z" fill="#4C4DDC"/>
<path d="M15.4655 38.0688C16.1226 38.0688 16.6552 38.6015 16.6552 39.2585C16.6552 39.9156 16.1226 40.4482 15.4655 40.4482C14.8085 40.4482 14.2759 39.9156 14.2759 39.2585C14.2759 38.6015 14.8085 38.0688 15.4655 38.0688Z" fill="#4C4DDC"/>
<path d="M29.7414 38.0688C30.3985 38.0688 30.9311 38.6015 30.9311 39.2585C30.9311 39.9156 30.3985 40.4482 29.7414 40.4482C29.0844 40.4482 28.5518 39.9156 28.5518 39.2585C28.5518 38.6015 29.0844 38.0688 29.7414 38.0688Z" fill="#4C4DDC"/>
<path d="M36.8791 38.0688C37.5362 38.0688 38.0688 38.6015 38.0688 39.2585C38.0688 39.9156 37.5362 40.4482 36.8791 40.4482C36.2221 40.4482 35.6895 39.9156 35.6895 39.2585C35.6895 38.6015 36.2221 38.0688 36.8791 38.0688Z" fill="#4C4DDC"/>
<path d="M46.3967 38.0688C47.0537 38.0688 47.5863 38.6015 47.5863 39.2585C47.5863 39.9156 47.0537 40.4482 46.3967 40.4482C45.7397 40.4482 45.207 39.9156 45.207 39.2585C45.207 38.6015 45.7397 38.0688 46.3967 38.0688Z" fill="#4C4DDC"/>
<path d="M48.7761 38.0688C49.4331 38.0688 49.9657 38.6015 49.9657 39.2585C49.9657 39.9156 49.4331 40.4482 48.7761 40.4482C48.1191 40.4482 47.5864 39.9156 47.5864 39.2585C47.5864 38.6015 48.1191 38.0688 48.7761 38.0688Z" fill="#4C4DDC"/>
<path d="M60.6726 38.0688C61.3296 38.0688 61.8622 38.6015 61.8622 39.2585C61.8622 39.9156 61.3296 40.4482 60.6726 40.4482C60.0155 40.4482 59.4829 39.9156 59.4829 39.2585C59.4829 38.6015 60.0155 38.0688 60.6726 38.0688Z" fill="#4C4DDC"/>
<path d="M1.18966 40.4482C1.84671 40.4482 2.37931 40.9809 2.37931 41.6379C2.37931 42.295 1.84671 42.8276 1.18966 42.8276C0.532632 42.8276 0 42.295 0 41.6379C0 40.9809 0.532632 40.4482 1.18966 40.4482Z" fill="#4C4DDC"/>
<path d="M8.32735 40.4482C8.98441 40.4482 9.51701 40.9809 9.51701 41.6379C9.51701 42.295 8.98441 42.8276 8.32735 42.8276C7.67033 42.8276 7.1377 42.295 7.1377 41.6379C7.1377 40.9809 7.67033 40.4482 8.32735 40.4482Z" fill="#4C4DDC"/>
<path d="M20.2243 40.4482C20.8814 40.4482 21.414 40.9809 21.414 41.6379C21.414 42.295 20.8814 42.8276 20.2243 42.8276C19.5673 42.8276 19.0347 42.295 19.0347 41.6379C19.0347 40.9809 19.5673 40.4482 20.2243 40.4482Z" fill="#4C4DDC"/>
<path d="M22.6032 40.4482C23.2603 40.4482 23.7929 40.9809 23.7929 41.6379C23.7929 42.295 23.2603 42.8276 22.6032 42.8276C21.9462 42.8276 21.4136 42.295 21.4136 41.6379C21.4136 40.9809 21.9462 40.4482 22.6032 40.4482Z" fill="#4C4DDC"/>
<path d="M41.6379 40.4482C42.295 40.4482 42.8276 40.9809 42.8276 41.6379C42.8276 42.295 42.295 42.8276 41.6379 42.8276C40.9809 42.8276 40.4482 42.295 40.4482 41.6379C40.4482 40.9809 40.9809 40.4482 41.6379 40.4482Z" fill="#4C4DDC"/>
<path d="M44.0173 40.4482C44.6743 40.4482 45.2069 40.9809 45.2069 41.6379C45.2069 42.295 44.6743 42.8276 44.0173 42.8276C43.3603 42.8276 42.8276 42.295 42.8276 41.6379C42.8276 40.9809 43.3603 40.4482 44.0173 40.4482Z" fill="#4C4DDC"/>
<path d="M46.3967 40.4482C47.0537 40.4482 47.5863 40.9809 47.5863 41.6379C47.5863 42.295 47.0537 42.8276 46.3967 42.8276C45.7397 42.8276 45.207 42.295 45.207 41.6379C45.207 40.9809 45.7397 40.4482 46.3967 40.4482Z" fill="#4C4DDC"/>
<path d="M58.2932 40.4482C58.9502 40.4482 59.4828 40.9809 59.4828 41.6379C59.4828 42.295 58.9502 42.8276 58.2932 42.8276C57.6361 42.8276 57.1035 42.295 57.1035 41.6379C57.1035 40.9809 57.6361 40.4482 58.2932 40.4482Z" fill="#4C4DDC"/>
<path d="M63.052 40.4482C63.709 40.4482 64.2416 40.9809 64.2416 41.6379C64.2416 42.295 63.709 42.8276 63.052 42.8276C62.3949 42.8276 61.8623 42.295 61.8623 41.6379C61.8623 40.9809 62.3949 40.4482 63.052 40.4482Z" fill="#4C4DDC"/>
<path d="M65.4309 40.4482C66.0879 40.4482 66.6205 40.9809 66.6205 41.6379C66.6205 42.295 66.0879 42.8276 65.4309 42.8276C64.7738 42.8276 64.2412 42.295 64.2412 41.6379C64.2412 40.9809 64.7738 40.4482 65.4309 40.4482Z" fill="#4C4DDC"/>
<path d="M1.18966 42.8276C1.84671 42.8276 2.37931 43.3603 2.37931 44.0173C2.37931 44.6743 1.84671 45.2069 1.18966 45.2069C0.532632 45.2069 0 44.6743 0 44.0173C0 43.3603 0.532632 42.8276 1.18966 42.8276Z" fill="#4C4DDC"/>
<path d="M3.56905 42.8276C4.22611 42.8276 4.7587 43.3603 4.7587 44.0173C4.7587 44.6743 4.22611 45.2069 3.56905 45.2069C2.91203 45.2069 2.37939 44.6743 2.37939 44.0173C2.37939 43.3603 2.91203 42.8276 3.56905 42.8276Z" fill="#4C4DDC"/>
<path d="M5.94844 42.8276C6.6055 42.8276 7.1381 43.3603 7.1381 44.0173C7.1381 44.6743 6.6055 45.2069 5.94844 45.2069C5.29142 45.2069 4.75879 44.6743 4.75879 44.0173C4.75879 43.3603 5.29142 42.8276 5.94844 42.8276Z" fill="#4C4DDC"/>
<path d="M15.4655 42.8276C16.1226 42.8276 16.6552 43.3603 16.6552 44.0173C16.6552 44.6743 16.1226 45.2069 15.4655 45.2069C14.8085 45.2069 14.2759 44.6743 14.2759 44.0173C14.2759 43.3603 14.8085 42.8276 15.4655 42.8276Z" fill="#4C4DDC"/>
<path d="M17.8449 42.8276C18.502 42.8276 19.0346 43.3603 19.0346 44.0173C19.0346 44.6743 18.502 45.2069 17.8449 45.2069C17.1879 45.2069 16.6553 44.6743 16.6553 44.0173C16.6553 43.3603 17.1879 42.8276 17.8449 42.8276Z" fill="#4C4DDC"/>
<path d="M22.6032 42.8276C23.2603 42.8276 23.7929 43.3603 23.7929 44.0173C23.7929 44.6743 23.2603 45.2069 22.6032 45.2069C21.9462 45.2069 21.4136 44.6743 21.4136 44.0173C21.4136 43.3603 21.9462 42.8276 22.6032 42.8276Z" fill="#4C4DDC"/>
<path d="M24.9826 42.8276C25.6397 42.8276 26.1723 43.3603 26.1723 44.0173C26.1723 44.6743 25.6397 45.2069 24.9826 45.2069C24.3256 45.2069 23.793 44.6743 23.793 44.0173C23.793 43.3603 24.3256 42.8276 24.9826 42.8276Z" fill="#4C4DDC"/>
<path d="M32.1208 42.8276C32.7779 42.8276 33.3105 43.3603 33.3105 44.0173C33.3105 44.6743 32.7779 45.2069 32.1208 45.2069C31.4638 45.2069 30.9312 44.6743 30.9312 44.0173C30.9312 43.3603 31.4638 42.8276 32.1208 42.8276Z" fill="#4C4DDC"/>
<path d="M34.5002 42.8276C35.1573 42.8276 35.6899 43.3603 35.6899 44.0173C35.6899 44.6743 35.1573 45.2069 34.5002 45.2069C33.8432 45.2069 33.3105 44.6743 33.3105 44.0173C33.3105 43.3603 33.8432 42.8276 34.5002 42.8276Z" fill="#4C4DDC"/>
<path d="M39.2585 42.8276C39.9156 42.8276 40.4482 43.3603 40.4482 44.0173C40.4482 44.6743 39.9156 45.2069 39.2585 45.2069C38.6015 45.2069 38.0688 44.6743 38.0688 44.0173C38.0688 43.3603 38.6015 42.8276 39.2585 42.8276Z" fill="#4C4DDC"/>
<path d="M44.0173 42.8276C44.6743 42.8276 45.2069 43.3603 45.2069 44.0173C45.2069 44.6743 44.6743 45.2069 44.0173 45.2069C43.3603 45.2069 42.8276 44.6743 42.8276 44.0173C42.8276 43.3603 43.3603 42.8276 44.0173 42.8276Z" fill="#4C4DDC"/>
<path d="M46.3967 42.8276C47.0537 42.8276 47.5863 43.3603 47.5863 44.0173C47.5863 44.6743 47.0537 45.2069 46.3967 45.2069C45.7397 45.2069 45.207 44.6743 45.207 44.0173C45.207 43.3603 45.7397 42.8276 46.3967 42.8276Z" fill="#4C4DDC"/>
<path d="M51.155 42.8276C51.812 42.8276 52.3446 43.3603 52.3446 44.0173C52.3446 44.6743 51.812 45.2069 51.155 45.2069C50.498 45.2069 49.9653 44.6743 49.9653 44.0173C49.9653 43.3603 50.498 42.8276 51.155 42.8276Z" fill="#4C4DDC"/>
<path d="M53.5344 42.8276C54.1914 42.8276 54.724 43.3603 54.724 44.0173C54.724 44.6743 54.1914 45.2069 53.5344 45.2069C52.8774 45.2069 52.3447 44.6743 52.3447 44.0173C52.3447 43.3603 52.8774 42.8276 53.5344 42.8276Z" fill="#4C4DDC"/>
<path d="M60.6726 42.8276C61.3296 42.8276 61.8622 43.3603 61.8622 44.0173C61.8622 44.6743 61.3296 45.2069 60.6726 45.2069C60.0155 45.2069 59.4829 44.6743 59.4829 44.0173C59.4829 43.3603 60.0155 42.8276 60.6726 42.8276Z" fill="#4C4DDC"/>
<path d="M67.8103 42.8276C68.4673 42.8276 68.9999 43.3603 68.9999 44.0173C68.9999 44.6743 68.4673 45.2069 67.8103 45.2069C67.1532 45.2069 66.6206 44.6743 66.6206 44.0173C66.6206 43.3603 67.1532 42.8276 67.8103 42.8276Z" fill="#4C4DDC"/>
<path d="M1.18966 45.2068C1.84671 45.2068 2.37931 45.7394 2.37931 46.3964C2.37931 47.0535 1.84671 47.5861 1.18966 47.5861C0.532632 47.5861 0 47.0535 0 46.3964C0 45.7394 0.532632 45.2068 1.18966 45.2068Z" fill="#4C4DDC"/>
<path d="M3.56905 45.2068C4.22611 45.2068 4.7587 45.7394 4.7587 46.3964C4.7587 47.0535 4.22611 47.5861 3.56905 47.5861C2.91203 47.5861 2.37939 47.0535 2.37939 46.3964C2.37939 45.7394 2.91203 45.2068 3.56905 45.2068Z" fill="#4C4DDC"/>
<path d="M10.7067 45.2068C11.3638 45.2068 11.8964 45.7394 11.8964 46.3964C11.8964 47.0535 11.3638 47.5861 10.7067 47.5861C10.0497 47.5861 9.51709 47.0535 9.51709 46.3964C9.51709 45.7394 10.0497 45.2068 10.7067 45.2068Z" fill="#4C4DDC"/>
<path d="M13.0861 45.2068C13.7432 45.2068 14.2758 45.7394 14.2758 46.3964C14.2758 47.0535 13.7432 47.5861 13.0861 47.5861C12.4291 47.5861 11.8965 47.0535 11.8965 46.3964C11.8965 45.7394 12.4291 45.2068 13.0861 45.2068Z" fill="#4C4DDC"/>
<path d="M17.8449 45.2068C18.502 45.2068 19.0346 45.7394 19.0346 46.3964C19.0346 47.0535 18.502 47.5861 17.8449 47.5861C17.1879 47.5861 16.6553 47.0535 16.6553 46.3964C16.6553 45.7394 17.1879 45.2068 17.8449 45.2068Z" fill="#4C4DDC"/>
<path d="M20.2243 45.2068C20.8814 45.2068 21.414 45.7394 21.414 46.3964C21.414 47.0535 20.8814 47.5861 20.2243 47.5861C19.5673 47.5861 19.0347 47.0535 19.0347 46.3964C19.0347 45.7394 19.5673 45.2068 20.2243 45.2068Z" fill="#4C4DDC"/>
<path d="M22.6032 45.2068C23.2603 45.2068 23.7929 45.7394 23.7929 46.3964C23.7929 47.0535 23.2603 47.5861 22.6032 47.5861C21.9462 47.5861 21.4136 47.0535 21.4136 46.3964C21.4136 45.7394 21.9462 45.2068 22.6032 45.2068Z" fill="#4C4DDC"/>
<path d="M24.9826 45.2068C25.6397 45.2068 26.1723 45.7394 26.1723 46.3964C26.1723 47.0535 25.6397 47.5861 24.9826 47.5861C24.3256 47.5861 23.793 47.0535 23.793 46.3964C23.793 45.7394 24.3256 45.2068 24.9826 45.2068Z" fill="#4C4DDC"/>
<path d="M27.362 45.2068C28.0191 45.2068 28.5517 45.7394 28.5517 46.3964C28.5517 47.0535 28.0191 47.5861 27.362 47.5861C26.705 47.5861 26.1724 47.0535 26.1724 46.3964C26.1724 45.7394 26.705 45.2068 27.362 45.2068Z" fill="#4C4DDC"/>
<path d="M32.1208 45.2068C32.7779 45.2068 33.3105 45.7394 33.3105 46.3964C33.3105 47.0535 32.7779 47.5861 32.1208 47.5861C31.4638 47.5861 30.9312 47.0535 30.9312 46.3964C30.9312 45.7394 31.4638 45.2068 32.1208 45.2068Z" fill="#4C4DDC"/>
<path d="M36.8791 45.2068C37.5362 45.2068 38.0688 45.7394 38.0688 46.3964C38.0688 47.0535 37.5362 47.5861 36.8791 47.5861C36.2221 47.5861 35.6895 47.0535 35.6895 46.3964C35.6895 45.7394 36.2221 45.2068 36.8791 45.2068Z" fill="#4C4DDC"/>
<path d="M39.2585 45.2068C39.9156 45.2068 40.4482 45.7394 40.4482 46.3964C40.4482 47.0535 39.9156 47.5861 39.2585 47.5861C38.6015 47.5861 38.0688 47.0535 38.0688 46.3964C38.0688 45.7394 38.6015 45.2068 39.2585 45.2068Z" fill="#4C4DDC"/>
<path d="M46.3967 45.2068C47.0537 45.2068 47.5863 45.7394 47.5863 46.3964C47.5863 47.0535 47.0537 47.5861 46.3967 47.5861C45.7397 47.5861 45.207 47.0535 45.207 46.3964C45.207 45.7394 45.7397 45.2068 46.3967 45.2068Z" fill="#4C4DDC"/>
<path d="M51.155 45.2068C51.812 45.2068 52.3446 45.7394 52.3446 46.3964C52.3446 47.0535 51.812 47.5861 51.155 47.5861C50.498 47.5861 49.9653 47.0535 49.9653 46.3964C49.9653 45.7394 50.498 45.2068 51.155 45.2068Z" fill="#4C4DDC"/>
<path d="M53.5344 45.2068C54.1914 45.2068 54.724 45.7394 54.724 46.3964C54.724 47.0535 54.1914 47.5861 53.5344 47.5861C52.8774 47.5861 52.3447 47.0535 52.3447 46.3964C52.3447 45.7394 52.8774 45.2068 53.5344 45.2068Z" fill="#4C4DDC"/>
<path d="M55.9138 45.2068C56.5708 45.2068 57.1034 45.7394 57.1034 46.3964C57.1034 47.0535 56.5708 47.5861 55.9138 47.5861C55.2568 47.5861 54.7241 47.0535 54.7241 46.3964C54.7241 45.7394 55.2568 45.2068 55.9138 45.2068Z" fill="#4C4DDC"/>
<path d="M58.2932 45.2068C58.9502 45.2068 59.4828 45.7394 59.4828 46.3964C59.4828 47.0535 58.9502 47.5861 58.2932 47.5861C57.6361 47.5861 57.1035 47.0535 57.1035 46.3964C57.1035 45.7394 57.6361 45.2068 58.2932 45.2068Z" fill="#4C4DDC"/>
<path d="M60.6726 45.2068C61.3296 45.2068 61.8622 45.7394 61.8622 46.3964C61.8622 47.0535 61.3296 47.5861 60.6726 47.5861C60.0155 47.5861 59.4829 47.0535 59.4829 46.3964C59.4829 45.7394 60.0155 45.2068 60.6726 45.2068Z" fill="#4C4DDC"/>
<path d="M63.052 45.2068C63.709 45.2068 64.2416 45.7394 64.2416 46.3964C64.2416 47.0535 63.709 47.5861 63.052 47.5861C62.3949 47.5861 61.8623 47.0535 61.8623 46.3964C61.8623 45.7394 62.3949 45.2068 63.052 45.2068Z" fill="#4C4DDC"/>
<path d="M1.18966 47.5862C1.84671 47.5862 2.37931 48.1188 2.37931 48.7758C2.37931 49.4329 1.84671 49.9655 1.18966 49.9655C0.532632 49.9655 0 49.4329 0 48.7758C0 48.1188 0.532632 47.5862 1.18966 47.5862Z" fill="#4C4DDC"/>
<path d="M3.56905 47.5862C4.22611 47.5862 4.7587 48.1188 4.7587 48.7758C4.7587 49.4329 4.22611 49.9655 3.56905 49.9655C2.91203 49.9655 2.37939 49.4329 2.37939 48.7758C2.37939 48.1188 2.91203 47.5862 3.56905 47.5862Z" fill="#4C4DDC"/>
<path d="M5.94844 47.5862C6.6055 47.5862 7.1381 48.1188 7.1381 48.7758C7.1381 49.4329 6.6055 49.9655 5.94844 49.9655C5.29142 49.9655 4.75879 49.4329 4.75879 48.7758C4.75879 48.1188 5.29142 47.5862 5.94844 47.5862Z" fill="#4C4DDC"/>
<path d="M13.0861 47.5862C13.7432 47.5862 14.2758 48.1188 14.2758 48.7758C14.2758 49.4329 13.7432 49.9655 13.0861 49.9655C12.4291 49.9655 11.8965 49.4329 11.8965 48.7758C11.8965 48.1188 12.4291 47.5862 13.0861 47.5862Z" fill="#4C4DDC"/>
<path d="M15.4655 47.5862C16.1226 47.5862 16.6552 48.1188 16.6552 48.7758C16.6552 49.4329 16.1226 49.9655 15.4655 49.9655C14.8085 49.9655 14.2759 49.4329 14.2759 48.7758C14.2759 48.1188 14.8085 47.5862 15.4655 47.5862Z" fill="#4C4DDC"/>
<path d="M22.6032 47.5862C23.2603 47.5862 23.7929 48.1188 23.7929 48.7758C23.7929 49.4329 23.2603 49.9655 22.6032 49.9655C21.9462 49.9655 21.4136 49.4329 21.4136 48.7758C21.4136 48.1188 21.9462 47.5862 22.6032 47.5862Z" fill="#4C4DDC"/>
<path d="M24.9826 47.5862C25.6397 47.5862 26.1723 48.1188 26.1723 48.7758C26.1723 49.4329 25.6397 49.9655 24.9826 49.9655C24.3256 49.9655 23.793 49.4329 23.793 48.7758C23.793 48.1188 24.3256 47.5862 24.9826 47.5862Z" fill="#4C4DDC"/>
<path d="M29.7414 47.5862C30.3985 47.5862 30.9311 48.1188 30.9311 48.7758C30.9311 49.4329 30.3985 49.9655 29.7414 49.9655C29.0844 49.9655 28.5518 49.4329 28.5518 48.7758C28.5518 48.1188 29.0844 47.5862 29.7414 47.5862Z" fill="#4C4DDC"/>
<path d="M32.1208 47.5862C32.7779 47.5862 33.3105 48.1188 33.3105 48.7758C33.3105 49.4329 32.7779 49.9655 32.1208 49.9655C31.4638 49.9655 30.9312 49.4329 30.9312 48.7758C30.9312 48.1188 31.4638 47.5862 32.1208 47.5862Z" fill="#4C4DDC"/>
<path d="M41.6379 47.5862C42.295 47.5862 42.8276 48.1188 42.8276 48.7758C42.8276 49.4329 42.295 49.9655 41.6379 49.9655C40.9809 49.9655 40.4482 49.4329 40.4482 48.7758C40.4482 48.1188 40.9809 47.5862 41.6379 47.5862Z" fill="#4C4DDC"/>
<path d="M46.3967 47.5862C47.0537 47.5862 47.5863 48.1188 47.5863 48.7758C47.5863 49.4329 47.0537 49.9655 46.3967 49.9655C45.7397 49.9655 45.207 49.4329 45.207 48.7758C45.207 48.1188 45.7397 47.5862 46.3967 47.5862Z" fill="#4C4DDC"/>
<path d="M48.7761 47.5862C49.4331 47.5862 49.9657 48.1188 49.9657 48.7758C49.9657 49.4329 49.4331 49.9655 48.7761 49.9655C48.1191 49.9655 47.5864 49.4329 47.5864 48.7758C47.5864 48.1188 48.1191 47.5862 48.7761 47.5862Z" fill="#4C4DDC"/>
<path d="M51.155 47.5862C51.812 47.5862 52.3446 48.1188 52.3446 48.7758C52.3446 49.4329 51.812 49.9655 51.155 49.9655C50.498 49.9655 49.9653 49.4329 49.9653 48.7758C49.9653 48.1188 50.498 47.5862 51.155 47.5862Z" fill="#4C4DDC"/>
<path d="M53.5344 47.5862C54.1914 47.5862 54.724 48.1188 54.724 48.7758C54.724 49.4329 54.1914 49.9655 53.5344 49.9655C52.8774 49.9655 52.3447 49.4329 52.3447 48.7758C52.3447 48.1188 52.8774 47.5862 53.5344 47.5862Z" fill="#4C4DDC"/>
<path d="M55.9138 47.5862C56.5708 47.5862 57.1034 48.1188 57.1034 48.7758C57.1034 49.4329 56.5708 49.9655 55.9138 49.9655C55.2568 49.9655 54.7241 49.4329 54.7241 48.7758C54.7241 48.1188 55.2568 47.5862 55.9138 47.5862Z" fill="#4C4DDC"/>
<path d="M58.2932 47.5862C58.9502 47.5862 59.4828 48.1188 59.4828 48.7758C59.4828 49.4329 58.9502 49.9655 58.2932 49.9655C57.6361 49.9655 57.1035 49.4329 57.1035 48.7758C57.1035 48.1188 57.6361 47.5862 58.2932 47.5862Z" fill="#4C4DDC"/>
<path d="M60.6726 47.5862C61.3296 47.5862 61.8622 48.1188 61.8622 48.7758C61.8622 49.4329 61.3296 49.9655 60.6726 49.9655C60.0155 49.9655 59.4829 49.4329 59.4829 48.7758C59.4829 48.1188 60.0155 47.5862 60.6726 47.5862Z" fill="#4C4DDC"/>
<path d="M63.052 47.5862C63.709 47.5862 64.2416 48.1188 64.2416 48.7758C64.2416 49.4329 63.709 49.9655 63.052 49.9655C62.3949 49.9655 61.8623 49.4329 61.8623 48.7758C61.8623 48.1188 62.3949 47.5862 63.052 47.5862Z" fill="#4C4DDC"/>
<path d="M65.4309 47.5862C66.0879 47.5862 66.6205 48.1188 66.6205 48.7758C66.6205 49.4329 66.0879 49.9655 65.4309 49.9655C64.7738 49.9655 64.2412 49.4329 64.2412 48.7758C64.2412 48.1188 64.7738 47.5862 65.4309 47.5862Z" fill="#4C4DDC"/>
<path d="M20.2243 49.9656C20.8814 49.9656 21.414 50.4982 21.414 51.1552C21.414 51.8123 20.8814 52.3449 20.2243 52.3449C19.5673 52.3449 19.0347 51.8123 19.0347 51.1552C19.0347 50.4982 19.5673 49.9656 20.2243 49.9656Z" fill="#4C4DDC"/>
<path d="M27.362 49.9656C28.0191 49.9656 28.5517 50.4982 28.5517 51.1552C28.5517 51.8123 28.0191 52.3449 27.362 52.3449C26.705 52.3449 26.1724 51.8123 26.1724 51.1552C26.1724 50.4982 26.705 49.9656 27.362 49.9656Z" fill="#4C4DDC"/>
<path d="M32.1208 49.9656C32.7779 49.9656 33.3105 50.4982 33.3105 51.1552C33.3105 51.8123 32.7779 52.3449 32.1208 52.3449C31.4638 52.3449 30.9312 51.8123 30.9312 51.1552C30.9312 50.4982 31.4638 49.9656 32.1208 49.9656Z" fill="#4C4DDC"/>
<path d="M39.2585 49.9656C39.9156 49.9656 40.4482 50.4982 40.4482 51.1552C40.4482 51.8123 39.9156 52.3449 39.2585 52.3449C38.6015 52.3449 38.0688 51.8123 38.0688 51.1552C38.0688 50.4982 38.6015 49.9656 39.2585 49.9656Z" fill="#4C4DDC"/>
<path d="M41.6379 49.9656C42.295 49.9656 42.8276 50.4982 42.8276 51.1552C42.8276 51.8123 42.295 52.3449 41.6379 52.3449C40.9809 52.3449 40.4482 51.8123 40.4482 51.1552C40.4482 50.4982 40.9809 49.9656 41.6379 49.9656Z" fill="#4C4DDC"/>
<path d="M44.0173 49.9656C44.6743 49.9656 45.2069 50.4982 45.2069 51.1552C45.2069 51.8123 44.6743 52.3449 44.0173 52.3449C43.3603 52.3449 42.8276 51.8123 42.8276 51.1552C42.8276 50.4982 43.3603 49.9656 44.0173 49.9656Z" fill="#4C4DDC"/>
<path d="M48.7761 49.9656C49.4331 49.9656 49.9657 50.4982 49.9657 51.1552C49.9657 51.8123 49.4331 52.3449 48.7761 52.3449C48.1191 52.3449 47.5864 51.8123 47.5864 51.1552C47.5864 50.4982 48.1191 49.9656 48.7761 49.9656Z" fill="#4C4DDC"/>
<path d="M58.2932 49.9656C58.9502 49.9656 59.4828 50.4982 59.4828 51.1552C59.4828 51.8123 58.9502 52.3449 58.2932 52.3449C57.6361 52.3449 57.1035 51.8123 57.1035 51.1552C57.1035 50.4982 57.6361 49.9656 58.2932 49.9656Z" fill="#4C4DDC"/>
<path d="M60.6726 49.9656C61.3296 49.9656 61.8622 50.4982 61.8622 51.1552C61.8622 51.8123 61.3296 52.3449 60.6726 52.3449C60.0155 52.3449 59.4829 51.8123 59.4829 51.1552C59.4829 50.4982 60.0155 49.9656 60.6726 49.9656Z" fill="#4C4DDC"/>
<path d="M20.2243 52.3447C20.8814 52.3447 21.414 52.8774 21.414 53.5344C21.414 54.1914 20.8814 54.724 20.2243 54.724C19.5673 54.724 19.0347 54.1914 19.0347 53.5344C19.0347 52.8774 19.5673 52.3447 20.2243 52.3447Z" fill="#4C4DDC"/>
<path d="M32.1208 52.3447C32.7779 52.3447 33.3105 52.8774 33.3105 53.5344C33.3105 54.1914 32.7779 54.724 32.1208 54.724C31.4638 54.724 30.9312 54.1914 30.9312 53.5344C30.9312 52.8774 31.4638 52.3447 32.1208 52.3447Z" fill="#4C4DDC"/>
<path d="M36.8791 52.3447C37.5362 52.3447 38.0688 52.8774 38.0688 53.5344C38.0688 54.1914 37.5362 54.724 36.8791 54.724C36.2221 54.724 35.6895 54.1914 35.6895 53.5344C35.6895 52.8774 36.2221 52.3447 36.8791 52.3447Z" fill="#4C4DDC"/>
<path d="M39.2585 52.3447C39.9156 52.3447 40.4482 52.8774 40.4482 53.5344C40.4482 54.1914 39.9156 54.724 39.2585 54.724C38.6015 54.724 38.0688 54.1914 38.0688 53.5344C38.0688 52.8774 38.6015 52.3447 39.2585 52.3447Z" fill="#4C4DDC"/>
<path d="M46.3967 52.3447C47.0537 52.3447 47.5863 52.8774 47.5863 53.5344C47.5863 54.1914 47.0537 54.724 46.3967 54.724C45.7397 54.724 45.207 54.1914 45.207 53.5344C45.207 52.8774 45.7397 52.3447 46.3967 52.3447Z" fill="#4C4DDC"/>
<path d="M48.7761 52.3447C49.4331 52.3447 49.9657 52.8774 49.9657 53.5344C49.9657 54.1914 49.4331 54.724 48.7761 54.724C48.1191 54.724 47.5864 54.1914 47.5864 53.5344C47.5864 52.8774 48.1191 52.3447 48.7761 52.3447Z" fill="#4C4DDC"/>
<path d="M53.5344 52.3447C54.1914 52.3447 54.724 52.8774 54.724 53.5344C54.724 54.1914 54.1914 54.724 53.5344 54.724C52.8774 54.724 52.3447 54.1914 52.3447 53.5344C52.3447 52.8774 52.8774 52.3447 53.5344 52.3447Z" fill="#4C4DDC"/>
<path d="M58.2932 52.3447C58.9502 52.3447 59.4828 52.8774 59.4828 53.5344C59.4828 54.1914 58.9502 54.724 58.2932 54.724C57.6361 54.724 57.1035 54.1914 57.1035 53.5344C57.1035 52.8774 57.6361 52.3447 58.2932 52.3447Z" fill="#4C4DDC"/>
<path d="M60.6726 52.3447C61.3296 52.3447 61.8622 52.8774 61.8622 53.5344C61.8622 54.1914 61.3296 54.724 60.6726 54.724C60.0155 54.724 59.4829 54.1914 59.4829 53.5344C59.4829 52.8774 60.0155 52.3447 60.6726 52.3447Z" fill="#4C4DDC"/>
<path d="M20.2243 54.7241C20.8814 54.7241 21.414 55.2568 21.414 55.9138C21.414 56.5708 20.8814 57.1034 20.2243 57.1034C19.5673 57.1034 19.0347 56.5708 19.0347 55.9138C19.0347 55.2568 19.5673 54.7241 20.2243 54.7241Z" fill="#4C4DDC"/>
<path d="M22.6032 54.7241C23.2603 54.7241 23.7929 55.2568 23.7929 55.9138C23.7929 56.5708 23.2603 57.1034 22.6032 57.1034C21.9462 57.1034 21.4136 56.5708 21.4136 55.9138C21.4136 55.2568 21.9462 54.7241 22.6032 54.7241Z" fill="#4C4DDC"/>
<path d="M24.9826 54.7241C25.6397 54.7241 26.1723 55.2568 26.1723 55.9138C26.1723 56.5708 25.6397 57.1034 24.9826 57.1034C24.3256 57.1034 23.793 56.5708 23.793 55.9138C23.793 55.2568 24.3256 54.7241 24.9826 54.7241Z" fill="#4C4DDC"/>
<path d="M29.7414 54.7241C30.3985 54.7241 30.9311 55.2568 30.9311 55.9138C30.9311 56.5708 30.3985 57.1034 29.7414 57.1034C29.0844 57.1034 28.5518 56.5708 28.5518 55.9138C28.5518 55.2568 29.0844 54.7241 29.7414 54.7241Z" fill="#4C4DDC"/>
<path d="M32.1208 54.7241C32.7779 54.7241 33.3105 55.2568 33.3105 55.9138C33.3105 56.5708 32.7779 57.1034 32.1208 57.1034C31.4638 57.1034 30.9312 56.5708 30.9312 55.9138C30.9312 55.2568 31.4638 54.7241 32.1208 54.7241Z" fill="#4C4DDC"/>
<path d="M39.2585 54.7241C39.9156 54.7241 40.4482 55.2568 40.4482 55.9138C40.4482 56.5708 39.9156 57.1034 39.2585 57.1034C38.6015 57.1034 38.0688 56.5708 38.0688 55.9138C38.0688 55.2568 38.6015 54.7241 39.2585 54.7241Z" fill="#4C4DDC"/>
<path d="M41.6379 54.7241C42.295 54.7241 42.8276 55.2568 42.8276 55.9138C42.8276 56.5708 42.295 57.1034 41.6379 57.1034C40.9809 57.1034 40.4482 56.5708 40.4482 55.9138C40.4482 55.2568 40.9809 54.7241 41.6379 54.7241Z" fill="#4C4DDC"/>
<path d="M46.3967 54.7241C47.0537 54.7241 47.5863 55.2568 47.5863 55.9138C47.5863 56.5708 47.0537 57.1034 46.3967 57.1034C45.7397 57.1034 45.207 56.5708 45.207 55.9138C45.207 55.2568 45.7397 54.7241 46.3967 54.7241Z" fill="#4C4DDC"/>
<path d="M48.7761 54.7241C49.4331 54.7241 49.9657 55.2568 49.9657 55.9138C49.9657 56.5708 49.4331 57.1034 48.7761 57.1034C48.1191 57.1034 47.5864 56.5708 47.5864 55.9138C47.5864 55.2568 48.1191 54.7241 48.7761 54.7241Z" fill="#4C4DDC"/>
<path d="M58.2932 54.7241C58.9502 54.7241 59.4828 55.2568 59.4828 55.9138C59.4828 56.5708 58.9502 57.1034 58.2932 57.1034C57.6361 57.1034 57.1035 56.5708 57.1035 55.9138C57.1035 55.2568 57.6361 54.7241 58.2932 54.7241Z" fill="#4C4DDC"/>
<path d="M65.4309 54.7241C66.0879 54.7241 66.6205 55.2568 66.6205 55.9138C66.6205 56.5708 66.0879 57.1034 65.4309 57.1034C64.7738 57.1034 64.2412 56.5708 64.2412 55.9138C64.2412 55.2568 64.7738 54.7241 65.4309 54.7241Z" fill="#4C4DDC"/>
<path d="M67.8103 54.7241C68.4673 54.7241 68.9999 55.2568 68.9999 55.9138C68.9999 56.5708 68.4673 57.1034 67.8103 57.1034C67.1532 57.1034 66.6206 56.5708 66.6206 55.9138C66.6206 55.2568 67.1532 54.7241 67.8103 54.7241Z" fill="#4C4DDC"/>
<path d="M20.2243 57.1035C20.8814 57.1035 21.414 57.6361 21.414 58.2932C21.414 58.9502 20.8814 59.4828 20.2243 59.4828C19.5673 59.4828 19.0347 58.9502 19.0347 58.2932C19.0347 57.6361 19.5673 57.1035 20.2243 57.1035Z" fill="#4C4DDC"/>
<path d="M27.362 57.1035C28.0191 57.1035 28.5517 57.6361 28.5517 58.2932C28.5517 58.9502 28.0191 59.4828 27.362 59.4828C26.705 59.4828 26.1724 58.9502 26.1724 58.2932C26.1724 57.6361 26.705 57.1035 27.362 57.1035Z" fill="#4C4DDC"/>
<path d="M29.7414 57.1035C30.3985 57.1035 30.9311 57.6361 30.9311 58.2932C30.9311 58.9502 30.3985 59.4828 29.7414 59.4828C29.0844 59.4828 28.5518 58.9502 28.5518 58.2932C28.5518 57.6361 29.0844 57.1035 29.7414 57.1035Z" fill="#4C4DDC"/>
<path d="M32.1208 57.1035C32.7779 57.1035 33.3105 57.6361 33.3105 58.2932C33.3105 58.9502 32.7779 59.4828 32.1208 59.4828C31.4638 59.4828 30.9312 58.9502 30.9312 58.2932C30.9312 57.6361 31.4638 57.1035 32.1208 57.1035Z" fill="#4C4DDC"/>
<path d="M36.8791 57.1035C37.5362 57.1035 38.0688 57.6361 38.0688 58.2932C38.0688 58.9502 37.5362 59.4828 36.8791 59.4828C36.2221 59.4828 35.6895 58.9502 35.6895 58.2932C35.6895 57.6361 36.2221 57.1035 36.8791 57.1035Z" fill="#4C4DDC"/>
<path d="M39.2585 57.1035C39.9156 57.1035 40.4482 57.6361 40.4482 58.2932C40.4482 58.9502 39.9156 59.4828 39.2585 59.4828C38.6015 59.4828 38.0688 58.9502 38.0688 58.2932C38.0688 57.6361 38.6015 57.1035 39.2585 57.1035Z" fill="#4C4DDC"/>
<path d="M46.3967 57.1035C47.0537 57.1035 47.5863 57.6361 47.5863 58.2932C47.5863 58.9502 47.0537 59.4828 46.3967 59.4828C45.7397 59.4828 45.207 58.9502 45.207 58.2932C45.207 57.6361 45.7397 57.1035 46.3967 57.1035Z" fill="#4C4DDC"/>
<path d="M48.7761 57.1035C49.4331 57.1035 49.9657 57.6361 49.9657 58.2932C49.9657 58.9502 49.4331 59.4828 48.7761 59.4828C48.1191 59.4828 47.5864 58.9502 47.5864 58.2932C47.5864 57.6361 48.1191 57.1035 48.7761 57.1035Z" fill="#4C4DDC"/>
<path d="M51.155 57.1035C51.812 57.1035 52.3446 57.6361 52.3446 58.2932C52.3446 58.9502 51.812 59.4828 51.155 59.4828C50.498 59.4828 49.9653 58.9502 49.9653 58.2932C49.9653 57.6361 50.498 57.1035 51.155 57.1035Z" fill="#4C4DDC"/>
<path d="M53.5344 57.1035C54.1914 57.1035 54.724 57.6361 54.724 58.2932C54.724 58.9502 54.1914 59.4828 53.5344 59.4828C52.8774 59.4828 52.3447 58.9502 52.3447 58.2932C52.3447 57.6361 52.8774 57.1035 53.5344 57.1035Z" fill="#4C4DDC"/>
<path d="M55.9138 57.1035C56.5708 57.1035 57.1034 57.6361 57.1034 58.2932C57.1034 58.9502 56.5708 59.4828 55.9138 59.4828C55.2568 59.4828 54.7241 58.9502 54.7241 58.2932C54.7241 57.6361 55.2568 57.1035 55.9138 57.1035Z" fill="#4C4DDC"/>
<path d="M58.2932 57.1035C58.9502 57.1035 59.4828 57.6361 59.4828 58.2932C59.4828 58.9502 58.9502 59.4828 58.2932 59.4828C57.6361 59.4828 57.1035 58.9502 57.1035 58.2932C57.1035 57.6361 57.6361 57.1035 58.2932 57.1035Z" fill="#4C4DDC"/>
<path d="M60.6726 57.1035C61.3296 57.1035 61.8622 57.6361 61.8622 58.2932C61.8622 58.9502 61.3296 59.4828 60.6726 59.4828C60.0155 59.4828 59.4829 58.9502 59.4829 58.2932C59.4829 57.6361 60.0155 57.1035 60.6726 57.1035Z" fill="#4C4DDC"/>
<path d="M20.2243 59.4827C20.8814 59.4827 21.414 60.0153 21.414 60.6723C21.414 61.3294 20.8814 61.862 20.2243 61.862C19.5673 61.862 19.0347 61.3294 19.0347 60.6723C19.0347 60.0153 19.5673 59.4827 20.2243 59.4827Z" fill="#4C4DDC"/>
<path d="M29.7414 59.4827C30.3985 59.4827 30.9311 60.0153 30.9311 60.6723C30.9311 61.3294 30.3985 61.862 29.7414 61.862C29.0844 61.862 28.5518 61.3294 28.5518 60.6723C28.5518 60.0153 29.0844 59.4827 29.7414 59.4827Z" fill="#4C4DDC"/>
<path d="M32.1208 59.4827C32.7779 59.4827 33.3105 60.0153 33.3105 60.6723C33.3105 61.3294 32.7779 61.862 32.1208 61.862C31.4638 61.862 30.9312 61.3294 30.9312 60.6723C30.9312 60.0153 31.4638 59.4827 32.1208 59.4827Z" fill="#4C4DDC"/>
<path d="M34.5002 59.4827C35.1573 59.4827 35.6899 60.0153 35.6899 60.6723C35.6899 61.3294 35.1573 61.862 34.5002 61.862C33.8432 61.862 33.3105 61.3294 33.3105 60.6723C33.3105 60.0153 33.8432 59.4827 34.5002 59.4827Z" fill="#4C4DDC"/>
<path d="M39.2585 59.4827C39.9156 59.4827 40.4482 60.0153 40.4482 60.6723C40.4482 61.3294 39.9156 61.862 39.2585 61.862C38.6015 61.862 38.0688 61.3294 38.0688 60.6723C38.0688 60.0153 38.6015 59.4827 39.2585 59.4827Z" fill="#4C4DDC"/>
<path d="M41.6379 59.4827C42.295 59.4827 42.8276 60.0153 42.8276 60.6723C42.8276 61.3294 42.295 61.862 41.6379 61.862C40.9809 61.862 40.4482 61.3294 40.4482 60.6723C40.4482 60.0153 40.9809 59.4827 41.6379 59.4827Z" fill="#4C4DDC"/>
<path d="M44.0173 59.4827C44.6743 59.4827 45.2069 60.0153 45.2069 60.6723C45.2069 61.3294 44.6743 61.862 44.0173 61.862C43.3603 61.862 42.8276 61.3294 42.8276 60.6723C42.8276 60.0153 43.3603 59.4827 44.0173 59.4827Z" fill="#4C4DDC"/>
<path d="M46.3967 59.4827C47.0537 59.4827 47.5863 60.0153 47.5863 60.6723C47.5863 61.3294 47.0537 61.862 46.3967 61.862C45.7397 61.862 45.207 61.3294 45.207 60.6723C45.207 60.0153 45.7397 59.4827 46.3967 59.4827Z" fill="#4C4DDC"/>
<path d="M48.7761 59.4827C49.4331 59.4827 49.9657 60.0153 49.9657 60.6723C49.9657 61.3294 49.4331 61.862 48.7761 61.862C48.1191 61.862 47.5864 61.3294 47.5864 60.6723C47.5864 60.0153 48.1191 59.4827 48.7761 59.4827Z" fill="#4C4DDC"/>
<path d="M51.155 59.4827C51.812 59.4827 52.3446 60.0153 52.3446 60.6723C52.3446 61.3294 51.812 61.862 51.155 61.862C50.498 61.862 49.9653 61.3294 49.9653 60.6723C49.9653 60.0153 50.498 59.4827 51.155 59.4827Z" fill="#4C4DDC"/>
<path d="M55.9138 59.4827C56.5708 59.4827 57.1034 60.0153 57.1034 60.6723C57.1034 61.3294 56.5708 61.862 55.9138 61.862C55.2568 61.862 54.7241 61.3294 54.7241 60.6723C54.7241 60.0153 55.2568 59.4827 55.9138 59.4827Z" fill="#4C4DDC"/>
<path d="M65.4309 59.4827C66.0879 59.4827 66.6205 60.0153 66.6205 60.6723C66.6205 61.3294 66.0879 61.862 65.4309 61.862C64.7738 61.862 64.2412 61.3294 64.2412 60.6723C64.2412 60.0153 64.7738 59.4827 65.4309 59.4827Z" fill="#4C4DDC"/>
<path d="M24.9826 61.8621C25.6397 61.8621 26.1723 62.3947 26.1723 63.0517C26.1723 63.7088 25.6397 64.2414 24.9826 64.2414C24.3256 64.2414 23.793 63.7088 23.793 63.0517C23.793 62.3947 24.3256 61.8621 24.9826 61.8621Z" fill="#4C4DDC"/>
<path d="M32.1208 61.8621C32.7779 61.8621 33.3105 62.3947 33.3105 63.0517C33.3105 63.7088 32.7779 64.2414 32.1208 64.2414C31.4638 64.2414 30.9312 63.7088 30.9312 63.0517C30.9312 62.3947 31.4638 61.8621 32.1208 61.8621Z" fill="#4C4DDC"/>
<path d="M39.2585 61.8621C39.9156 61.8621 40.4482 62.3947 40.4482 63.0517C40.4482 63.7088 39.9156 64.2414 39.2585 64.2414C38.6015 64.2414 38.0688 63.7088 38.0688 63.0517C38.0688 62.3947 38.6015 61.8621 39.2585 61.8621Z" fill="#4C4DDC"/>
<path d="M51.155 61.8621C51.812 61.8621 52.3446 62.3947 52.3446 63.0517C52.3446 63.7088 51.812 64.2414 51.155 64.2414C50.498 64.2414 49.9653 63.7088 49.9653 63.0517C49.9653 62.3947 50.498 61.8621 51.155 61.8621Z" fill="#4C4DDC"/>
<path d="M55.9138 61.8621C56.5708 61.8621 57.1034 62.3947 57.1034 63.0517C57.1034 63.7088 56.5708 64.2414 55.9138 64.2414C55.2568 64.2414 54.7241 63.7088 54.7241 63.0517C54.7241 62.3947 55.2568 61.8621 55.9138 61.8621Z" fill="#4C4DDC"/>
<path d="M58.2932 61.8621C58.9502 61.8621 59.4828 62.3947 59.4828 63.0517C59.4828 63.7088 58.9502 64.2414 58.2932 64.2414C57.6361 64.2414 57.1035 63.7088 57.1035 63.0517C57.1035 62.3947 57.6361 61.8621 58.2932 61.8621Z" fill="#4C4DDC"/>
<path d="M63.052 61.8621C63.709 61.8621 64.2416 62.3947 64.2416 63.0517C64.2416 63.7088 63.709 64.2414 63.052 64.2414C62.3949 64.2414 61.8623 63.7088 61.8623 63.0517C61.8623 62.3947 62.3949 61.8621 63.052 61.8621Z" fill="#4C4DDC"/>
<path d="M65.4309 61.8621C66.0879 61.8621 66.6205 62.3947 66.6205 63.0517C66.6205 63.7088 66.0879 64.2414 65.4309 64.2414C64.7738 64.2414 64.2412 63.7088 64.2412 63.0517C64.2412 62.3947 64.7738 61.8621 65.4309 61.8621Z" fill="#4C4DDC"/>
<path d="M67.8103 61.8621C68.4673 61.8621 68.9999 62.3947 68.9999 63.0517C68.9999 63.7088 68.4673 64.2414 67.8103 64.2414C67.1532 64.2414 66.6206 63.7088 66.6206 63.0517C66.6206 62.3947 67.1532 61.8621 67.8103 61.8621Z" fill="#4C4DDC"/>
<path d="M27.362 64.2415C28.0191 64.2415 28.5517 64.7741 28.5517 65.4311C28.5517 66.0882 28.0191 66.6208 27.362 66.6208C26.705 66.6208 26.1724 66.0882 26.1724 65.4311C26.1724 64.7741 26.705 64.2415 27.362 64.2415Z" fill="#4C4DDC"/>
<path d="M32.1208 64.2415C32.7779 64.2415 33.3105 64.7741 33.3105 65.4311C33.3105 66.0882 32.7779 66.6208 32.1208 66.6208C31.4638 66.6208 30.9312 66.0882 30.9312 65.4311C30.9312 64.7741 31.4638 64.2415 32.1208 64.2415Z" fill="#4C4DDC"/>
<path d="M36.8791 64.2415C37.5362 64.2415 38.0688 64.7741 38.0688 65.4311C38.0688 66.0882 37.5362 66.6208 36.8791 66.6208C36.2221 66.6208 35.6895 66.0882 35.6895 65.4311C35.6895 64.7741 36.2221 64.2415 36.8791 64.2415Z" fill="#4C4DDC"/>
<path d="M51.155 64.2415C51.812 64.2415 52.3446 64.7741 52.3446 65.4311C52.3446 66.0882 51.812 66.6208 51.155 66.6208C50.498 66.6208 49.9653 66.0882 49.9653 65.4311C49.9653 64.7741 50.498 64.2415 51.155 64.2415Z" fill="#4C4DDC"/>
<path d="M55.9138 64.2415C56.5708 64.2415 57.1034 64.7741 57.1034 65.4311C57.1034 66.0882 56.5708 66.6208 55.9138 66.6208C55.2568 66.6208 54.7241 66.0882 54.7241 65.4311C54.7241 64.7741 55.2568 64.2415 55.9138 64.2415Z" fill="#4C4DDC"/>
<path d="M60.6726 64.2415C61.3296 64.2415 61.8622 64.7741 61.8622 65.4311C61.8622 66.0882 61.3296 66.6208 60.6726 66.6208C60.0155 66.6208 59.4829 66.0882 59.4829 65.4311C59.4829 64.7741 60.0155 64.2415 60.6726 64.2415Z" fill="#4C4DDC"/>
<path d="M63.052 64.2415C63.709 64.2415 64.2416 64.7741 64.2416 65.4311C64.2416 66.0882 63.709 66.6208 63.052 66.6208C62.3949 66.6208 61.8623 66.0882 61.8623 65.4311C61.8623 64.7741 62.3949 64.2415 63.052 64.2415Z" fill="#4C4DDC"/>
<path d="M67.8103 64.2415C68.4673 64.2415 68.9999 64.7741 68.9999 65.4311C68.9999 66.0882 68.4673 66.6208 67.8103 66.6208C67.1532 66.6208 66.6206 66.0882 66.6206 65.4311C66.6206 64.7741 67.1532 64.2415 67.8103 64.2415Z" fill="#4C4DDC"/>
<path d="M20.2243 66.6206C20.8814 66.6206 21.414 67.1532 21.414 67.8103C21.414 68.4673 20.8814 68.9999 20.2243 68.9999C19.5673 68.9999 19.0347 68.4673 19.0347 67.8103C19.0347 67.1532 19.5673 66.6206 20.2243 66.6206Z" fill="#4C4DDC"/>
<path d="M27.362 66.6206C28.0191 66.6206 28.5517 67.1532 28.5517 67.8103C28.5517 68.4673 28.0191 68.9999 27.362 68.9999C26.705 68.9999 26.1724 68.4673 26.1724 67.8103C26.1724 67.1532 26.705 66.6206 27.362 66.6206Z" fill="#4C4DDC"/>
<path d="M29.7414 66.6206C30.3985 66.6206 30.9311 67.1532 30.9311 67.8103C30.9311 68.4673 30.3985 68.9999 29.7414 68.9999C29.0844 68.9999 28.5518 68.4673 28.5518 67.8103C28.5518 67.1532 29.0844 66.6206 29.7414 66.6206Z" fill="#4C4DDC"/>
<path d="M41.6379 66.6206C42.295 66.6206 42.8276 67.1532 42.8276 67.8103C42.8276 68.4673 42.295 68.9999 41.6379 68.9999C40.9809 68.9999 40.4482 68.4673 40.4482 67.8103C40.4482 67.1532 40.9809 66.6206 41.6379 66.6206Z" fill="#4C4DDC"/>
<path d="M44.0173 66.6206C44.6743 66.6206 45.2069 67.1532 45.2069 67.8103C45.2069 68.4673 44.6743 68.9999 44.0173 68.9999C43.3603 68.9999 42.8276 68.4673 42.8276 67.8103C42.8276 67.1532 43.3603 66.6206 44.0173 66.6206Z" fill="#4C4DDC"/>
<path d="M46.3967 66.6206C47.0537 66.6206 47.5863 67.1532 47.5863 67.8103C47.5863 68.4673 47.0537 68.9999 46.3967 68.9999C45.7397 68.9999 45.207 68.4673 45.207 67.8103C45.207 67.1532 45.7397 66.6206 46.3967 66.6206Z" fill="#4C4DDC"/>
<path d="M48.7761 66.6206C49.4331 66.6206 49.9657 67.1532 49.9657 67.8103C49.9657 68.4673 49.4331 68.9999 48.7761 68.9999C48.1191 68.9999 47.5864 68.4673 47.5864 67.8103C47.5864 67.1532 48.1191 66.6206 48.7761 66.6206Z" fill="#4C4DDC"/>
<path d="M53.5344 66.6206C54.1914 66.6206 54.724 67.1532 54.724 67.8103C54.724 68.4673 54.1914 68.9999 53.5344 68.9999C52.8774 68.9999 52.3447 68.4673 52.3447 67.8103C52.3447 67.1532 52.8774 66.6206 53.5344 66.6206Z" fill="#4C4DDC"/>
<path d="M58.2932 66.6206C58.9502 66.6206 59.4828 67.1532 59.4828 67.8103C59.4828 68.4673 58.9502 68.9999 58.2932 68.9999C57.6361 68.9999 57.1035 68.4673 57.1035 67.8103C57.1035 67.1532 57.6361 66.6206 58.2932 66.6206Z" fill="#4C4DDC"/>
<path d="M60.6726 66.6206C61.3296 66.6206 61.8622 67.1532 61.8622 67.8103C61.8622 68.4673 61.3296 68.9999 60.6726 68.9999C60.0155 68.9999 59.4829 68.4673 59.4829 67.8103C59.4829 67.1532 60.0155 66.6206 60.6726 66.6206Z" fill="#4C4DDC"/>
<path d="M0.000101089 11.0292V5.62112C0.000101089 2.52176 2.55167 0 5.68634 0H10.9692C14.1037 0 16.6553 2.52176 16.6553 5.62112V16.6552L5.68634 16.6518C2.55167 16.6518 0.000101089 14.1302 0.000101089 11.0292ZM2.49838 11.0292C2.49838 12.752 3.92839 14.1537 5.68701 14.1537L14.157 14.1562V5.62112C14.157 3.89914 12.727 2.49828 10.9692 2.49828H5.68634C3.92839 2.49828 2.49838 3.89914 2.49838 5.62112V11.0292Z" fill="#4C4DDC"/>
<path d="M68.9999 11.0292V5.62112C68.9999 2.52176 66.4483 0 63.3137 0H58.0308C54.8963 0 52.3447 2.52176 52.3447 5.62112V16.6552L63.3137 16.6518C66.4483 16.6518 68.9999 14.1302 68.9999 11.0292ZM66.5016 11.0292C66.5016 12.752 65.0716 14.1537 63.313 14.1537L54.843 14.1562V5.62112C54.843 3.89914 56.273 2.49828 58.0308 2.49828H63.3137C65.0716 2.49828 66.5016 3.89914 66.5016 5.62112V11.0292Z" fill="#4C4DDC"/>
<path d="M0.000101089 57.9708V63.3789C0.000101089 66.4782 2.55167 69 5.68634 69H10.9692C14.1037 69 16.6553 66.4782 16.6553 63.3789V52.3448L5.68634 52.3482C2.55167 52.3482 0.000101089 54.8698 0.000101089 57.9708ZM2.49838 57.9708C2.49838 56.248 3.92839 54.8463 5.68701 54.8463L14.157 54.8438V63.3789C14.157 65.1009 12.727 66.5017 10.9692 66.5017H5.68634C3.92839 66.5017 2.49838 65.1009 2.49838 63.3789V57.9708Z" fill="#4C4DDC"/>
<path d="M4.75855 9.95346V6.69971C4.75855 5.62959 5.64337 4.75854 6.73076 4.75854H9.92427C11.0116 4.75854 11.8965 5.62959 11.8965 6.69971V11.8965L6.73076 11.8935C5.64337 11.8935 4.75855 11.0236 4.75855 9.95346Z" fill="#4C4DDC"/>
<path d="M64.2414 9.95346V6.69971C64.2414 5.62959 63.3566 4.75854 62.2692 4.75854H59.0757C57.9884 4.75854 57.1035 5.62959 57.1035 6.69971V11.8965L62.2692 11.8935C63.3566 11.8935 64.2414 11.0236 64.2414 9.95346Z" fill="#4C4DDC"/>
<path d="M4.75855 59.0465V62.3003C4.75855 63.3704 5.64337 64.2415 6.73076 64.2415H9.92427C11.0116 64.2415 11.8965 63.3704 11.8965 62.3003V57.1035L6.73076 57.1065C5.64337 57.1065 4.75855 57.9764 4.75855 59.0465Z" fill="#4C4DDC"/>
</svg>
