<svg width="22" height="22" viewBox="0 0 22 22" fill="none" xmlns="http://www.w3.org/2000/svg">
<path d="M2.01074 10.22V14.71C2.01074 19.2 3.81074 21 8.30074 21H13.6907C18.1807 21 19.9807 19.2 19.9807 14.71V10.22" fill="#4C4DDC"/>
<path d="M2.01074 10.22V14.71C2.01074 19.2 3.81074 21 8.30074 21H13.6907C18.1807 21 19.9807 19.2 19.9807 14.71V10.22" stroke="white" stroke-width="1.5" stroke-linecap="round" stroke-linejoin="round"/>
<path d="M11.0005 11C12.8305 11 14.1805 9.51 14.0005 7.68L13.3405 1H8.67048L8.00048 7.68C7.82048 9.51 9.17048 11 11.0005 11Z" fill="#4C4DDC" stroke="white" stroke-width="1.5" stroke-linecap="round" stroke-linejoin="round"/>
<path d="M17.3108 11C19.3308 11 20.8108 9.36 20.6108 7.35L20.3308 4.6C19.9708 2 18.9708 1 16.3508 1H13.3008L14.0008 8.01C14.1708 9.66 15.6608 11 17.3108 11Z" fill="#4C4DDC" stroke="white" stroke-width="1.5" stroke-linecap="round" stroke-linejoin="round"/>
<path d="M4.64037 11C6.29037 11 7.78037 9.66 7.94037 8.01L8.16037 5.8L8.64037 1H5.59037C2.97037 1 1.97037 2 1.61037 4.6L1.34037 7.35C1.14037 9.36 2.62037 11 4.64037 11Z" fill="#4C4DDC" stroke="white" stroke-width="1.5" stroke-linecap="round" stroke-linejoin="round"/>
<path d="M11 16C9.33 16 8.5 16.83 8.5 18.5V21H13.5V18.5C13.5 16.83 12.67 16 11 16Z" fill="#4C4DDC" stroke="white" stroke-width="1.5" stroke-linecap="round" stroke-linejoin="round"/>
</svg>
