<svg width="18" height="18" viewBox="0 0 18 18" fill="none" xmlns="http://www.w3.org/2000/svg">
<g clip-path="url(#clip0_24_9888)">
<path d="M7.5 16.5C4.67175 16.5 3.25725 16.5 2.379 15.621C1.50075 14.742 1.5 14.0782 1.5 11.25M16.5 11.25C16.5 14.0782 16.5 14.7427 15.621 15.621C14.742 16.4992 13.3283 16.5 10.5 16.5M10.5 1.5C13.3283 1.5 14.7428 1.5 15.621 2.379C16.4993 3.258 16.5 3.92175 16.5 6.75M7.5 1.5C4.67175 1.5 3.25725 1.5 2.379 2.379C1.50075 3.258 1.5 3.92175 1.5 6.75M1.5 9H16.5" stroke="#4C4DDC" stroke-width="1.3" stroke-linecap="round"/>
</g>
<defs>
<clipPath id="clip0_24_9888">
<rect width="18" height="18" fill="white"/>
</clipPath>
</defs>
</svg>
