<svg width="18" height="18" viewBox="0 0 18 18" fill="none" xmlns="http://www.w3.org/2000/svg">
<g clip-path="url(#clip0_99_2114)">
<path d="M0.384914 8.89222C0.384492 10.4046 0.7827 11.8813 1.53989 13.1828L0.3125 17.63L4.89864 16.4367C6.16711 17.1219 7.58833 17.481 9.03258 17.4811H9.03637C13.8041 17.4811 17.6852 13.6311 17.6872 8.89899C17.6881 6.60594 16.7891 4.44971 15.1556 2.82748C13.5224 1.20538 11.3503 0.311593 9.03602 0.310547C4.26772 0.310547 0.386953 4.16031 0.384985 8.89222" fill="url(#paint0_linear_99_2114)"/>
<path d="M0.076203 8.88949C0.0757108 10.4563 0.488191 11.9858 1.27237 13.334L0.000976562 17.9405L4.75156 16.7044C6.0605 17.4126 7.53423 17.786 9.03384 17.7866H9.03771C13.9765 17.7866 17.997 13.7981 17.9991 8.8966C17.9999 6.52116 17.0685 4.28742 15.3767 2.60707C13.6847 0.92693 11.4349 0.000976744 9.03771 0C4.09807 0 0.0781715 3.98791 0.076203 8.88949ZM2.90535 13.1018L2.72797 12.8223C1.98231 11.6458 1.58875 10.2862 1.58931 8.89005C1.59086 4.81598 4.93203 1.5014 9.04052 1.5014C11.0302 1.50223 12.9 2.27191 14.3064 3.66837C15.7127 5.06498 16.4865 6.92149 16.486 8.89605C16.4842 12.9701 13.143 16.2851 9.03771 16.2851H9.03476C7.69805 16.2844 6.38707 15.9282 5.24377 15.255L4.97169 15.0949L2.15259 15.8284L2.90535 13.1018Z" fill="url(#paint1_linear_99_2114)"/>
<path d="M6.79812 5.17304C6.63037 4.80306 6.45383 4.79559 6.29431 4.78911C6.16368 4.78352 6.01435 4.78394 5.86517 4.78394C5.71584 4.78394 5.47322 4.83969 5.26814 5.0619C5.06285 5.28431 4.48438 5.8218 4.48438 6.91499C4.48438 8.00818 5.28677 9.06473 5.39862 9.21313C5.51062 9.36125 6.94765 11.6764 9.22357 12.5671C11.1151 13.3072 11.5 13.16 11.9105 13.1229C12.3211 13.0859 13.2353 12.5855 13.4218 12.0667C13.6085 11.5479 13.6085 11.1032 13.5525 11.0103C13.4966 10.9177 13.3472 10.8621 13.1233 10.751C12.8994 10.6399 11.7985 10.1023 11.5933 10.0282C11.388 9.95406 11.2387 9.91708 11.0894 10.1396C10.9401 10.3617 10.5113 10.8621 10.3806 11.0103C10.25 11.1588 10.1193 11.1773 9.89547 11.0662C9.67141 10.9547 8.95029 10.7203 8.09475 9.96341C7.4291 9.37443 6.97971 8.64711 6.84909 8.42462C6.71846 8.20248 6.8351 8.08206 6.94737 7.97134C7.04798 7.87178 7.17136 7.71187 7.28343 7.58218C7.39508 7.45241 7.43234 7.35983 7.507 7.21164C7.58174 7.06331 7.54433 6.93355 7.48844 6.82241C7.43234 6.71127 6.99722 5.61236 6.79812 5.17304Z" fill="white"/>
</g>
<defs>
<linearGradient id="paint0_linear_99_2114" x1="869.048" y1="1732.25" x2="869.048" y2="0.310547" gradientUnits="userSpaceOnUse">
<stop stop-color="#1FAF38"/>
<stop offset="1" stop-color="#60D669"/>
</linearGradient>
<linearGradient id="paint1_linear_99_2114" x1="899.906" y1="1794.05" x2="899.906" y2="0" gradientUnits="userSpaceOnUse">
<stop stop-color="#F9F9F9"/>
<stop offset="1" stop-color="white"/>
</linearGradient>
<clipPath id="clip0_99_2114">
<rect width="18" height="18" fill="white"/>
</clipPath>
</defs>
</svg>
